<svg xmlns="http://www.w3.org/2000/svg" width="39.732" height="35" viewBox="0 0 39.732 35">
  <defs>
    <style>
      .cls-1 {
        fill: #383838;
        fill-rule: evenodd;
      }
    </style>
  </defs>
  <path id="chat-bubble-icon" class="cls-1" d="M16.536,30.3a14.309,14.309,0,0,0,16.037,2.736l4.971,1.94-1.656-3.9c5.524-4.424,4.528-10.5.466-14.65a14.353,14.353,0,0,1-1.578,4.5,16.639,16.639,0,0,1-4.563,5.2,20.216,20.216,0,0,1-6.381,3.234,22.984,22.984,0,0,1-7.3.944Zm7.626-18.631A2.16,2.16,0,1,1,22,13.828,2.16,2.16,0,0,1,24.162,11.667Zm-14.278,0a2.16,2.16,0,1,1-2.16,2.16,2.16,2.16,0,0,1,2.16-2.16Zm7.141,0a2.16,2.16,0,1,1-2.157,2.16,2.16,2.16,0,0,1,2.157-2.16Zm.43-11.684h0A19.107,19.107,0,0,1,29.291,4.346a12.766,12.766,0,0,1,4.754,10.025h0a12.734,12.734,0,0,1-5.352,9.738A19.057,19.057,0,0,1,16.607,27.8a20.918,20.918,0,0,1-3.774-.453A19.728,19.728,0,0,1,9.6,26.35L2.3,29.209l2.438-5.8a14.181,14.181,0,0,1-3.457-4.35A11.707,11.707,0,0,1-.009,13.391,12.745,12.745,0,0,1,5.343,3.65,19.306,19.306,0,0,1,17.455-.017Zm-.045,1.682h0A17.5,17.5,0,0,0,6.359,4.983,11.066,11.066,0,0,0,1.67,13.436,10.09,10.09,0,0,0,2.776,18.31a12.713,12.713,0,0,0,3.5,4.2l.511.388-1.4,3.292,4.23-1.662.323.136a17.977,17.977,0,0,0,3.25,1.028,19.081,19.081,0,0,0,3.464.417A17.447,17.447,0,0,0,27.687,22.8a11.093,11.093,0,0,0,4.693-8.454h0a11.088,11.088,0,0,0-4.172-8.706,17.387,17.387,0,0,0-10.8-3.971Z" transform="translate(0.013 0.025)"/>
</svg>
