<svg xmlns="http://www.w3.org/2000/svg" width="55" height="55" viewBox="0 0 55 55">
  <defs>
    <style>
      .cls-1, .cls-2 {
        fill: #fff;
      }

      .cls-1 {
        fill-rule: evenodd;
      }

      .cls-3 {
        fill: #fcc330;
      }
    </style>
  </defs>
  <g id="clock" transform="translate(-69.998 0)">
    <path id="Path_174" data-name="Path 174" class="cls-1" d="M332.184,130.3l1.358-15.01,1.282,14.482c.076.076.151.076.151.151l8.3,1.207-8.3,1.207a1.611,1.611,0,0,1-1.282.6,1.771,1.771,0,0,1-1.735-1.81,1.523,1.523,0,0,1,.226-.83Z" transform="translate(-236.09 -103.852)"/>
    <path id="Path_175" data-name="Path 175" class="cls-2" d="M135.782,42.352a23.362,23.362,0,0,1,23.427,23.427A23.454,23.454,0,0,1,119.236,82.4a23.466,23.466,0,0,1,16.545-40.05Zm-17.4,24.2H113.9a21.991,21.991,0,0,0,6.417,14.69,21.638,21.638,0,0,0,14.69,6.417V83.175h1.547v4.484a21.965,21.965,0,0,0,21.107-21.107h-4.484V65.006h4.484a21.64,21.64,0,0,0-6.417-14.69,21.991,21.991,0,0,0-14.69-6.417v4.484h-1.546V43.9A21.965,21.965,0,0,0,113.9,65.006h4.484Z" transform="translate(-38.284 -38.279)"/>
    <path id="Path_176" data-name="Path 176" class="cls-3" d="M97.5,0A27.615,27.615,0,1,1,78.086,8.088,27.415,27.415,0,0,1,97.5,0Zm18.41,9.167A26.13,26.13,0,1,0,123.457,27.5a26.031,26.031,0,0,0-7.549-18.334Z" transform="translate(0 0)"/>
  </g>
</svg>
