<svg xmlns="http://www.w3.org/2000/svg" width="61.716" height="48" viewBox="0 0 61.716 48">
  <defs>
    <style>
      .cls-1 {
        fill: #fff;
      }
    </style>
  </defs>
  <path id="credit-card-regular" class="cls-1" d="M18,64.571a2.571,2.571,0,1,1,0,5.143H12.857a2.571,2.571,0,1,1,0-5.143Zm20.572,0a2.571,2.571,0,1,1,0,5.143h-12a2.571,2.571,0,1,1,0-5.143ZM54.858,32a6.86,6.86,0,0,1,6.857,6.857V73.143A6.864,6.864,0,0,1,54.858,80h-48A6.86,6.86,0,0,1,0,73.143V38.857A6.857,6.857,0,0,1,6.857,32Zm0,5.143h-48a1.714,1.714,0,0,0-1.714,1.714v3.429h51.43V38.857A1.717,1.717,0,0,0,54.858,37.143Zm1.714,15.429H5.143V73.143a1.717,1.717,0,0,0,1.714,1.714h48a1.719,1.719,0,0,0,1.714-1.714Z" transform="translate(0 -32)"/>
</svg>
