<svg xmlns="http://www.w3.org/2000/svg" width="55" height="56.318" viewBox="0 0 55 56.318">
  <defs>
    <style>
      .cls-1 {
        fill: #fff;
      }

      .cls-2 {
        fill: #fcc330;
      }

      .cls-3, .cls-4 {
        fill: none;
        stroke-linecap: round;
        stroke-linejoin: round;
        stroke-width: 2px;
      }

      .cls-3 {
        stroke: #fff;
      }

      .cls-4 {
        stroke: #fc0;
      }
    </style>
  </defs>
  <g id="credit-card" transform="translate(-293.962 -626.526)">
    <g id="noun-credit-cart-3866769" transform="translate(293.962 635.719)">
      <path id="Path_179" data-name="Path 179" class="cls-1" d="M148.406,105H99.1a2.844,2.844,0,0,0-2.845,2.845v32.241a2.844,2.844,0,0,0,2.845,2.845h49.31a2.844,2.844,0,0,0,2.845-2.845V107.845A2.844,2.844,0,0,0,148.406,105Zm-50.259,9.483h51.207v1.9H98.147ZM99.1,106.9h49.31a.948.948,0,0,1,.948.948v4.741H98.147v-4.741A.948.948,0,0,1,99.1,106.9Zm49.31,34.138H99.1a.948.948,0,0,1-.948-.948v-21.81h51.207v21.81a.948.948,0,0,1-.948.948Z" transform="translate(-96.251 -105)"/>
      <path id="Path_180" data-name="Path 180" class="cls-2" d="M160.1,341.25H149.623a.873.873,0,1,0,0,1.745H160.1a.873.873,0,1,0,0-1.745Z" transform="translate(-143.514 -315.539)"/>
      <path id="Path_181" data-name="Path 181" class="cls-1" d="M160.1,385H149.623a.873.873,0,0,0,0,1.745H160.1a.873.873,0,0,0,0-1.745Z" transform="translate(-143.514 -354.05)"/>
      <path id="Path_182" data-name="Path 182" class="cls-2" d="M429.441,332.5a3.492,3.492,0,0,0-3.054,1.833,3.491,3.491,0,1,0,0,3.316,3.491,3.491,0,1,0,3.054-5.149Zm-6.109,5.236a1.745,1.745,0,1,1,1.234-.511A1.746,1.746,0,0,1,423.332,337.734Zm6.109,0a1.745,1.745,0,1,1,1.234-.511A1.746,1.746,0,0,1,429.441,337.734Z" transform="translate(-383.168 -306.784)"/>
    </g>
    <path id="Path_183" data-name="Path 183" class="cls-3" d="M3862.961,383.528h48.17l-4.684-5.343" transform="translate(-3565.585 249)"/>
    <path id="Path_184" data-name="Path 184" class="cls-4" d="M3911.132,378.185h-48.17l4.684,5.343" transform="translate(-3565.585 298.657)"/>
  </g>
</svg>
