<svg xmlns="http://www.w3.org/2000/svg" width="48" height="48" viewBox="0 0 48 48">
  <defs>
    <style>
      .cls-1 {
        fill: #fff;
      }
    </style>
  </defs>
  <path id="gift-solid" class="cls-1" d="M14.25,0h.206a8.456,8.456,0,0,1,7.284,4.167L24,8.012l2.259-3.845A8.456,8.456,0,0,1,33.544,0h.206A8.25,8.25,0,0,1,42,8.25,8.529,8.529,0,0,1,41.1,12H45a3,3,0,0,1,3,3v6a3,3,0,0,1-3,3H3a3,3,0,0,1-3-3V15a3,3,0,0,1,3-3H6.9A8.478,8.478,0,0,1,6,8.25,8.25,8.25,0,0,1,14.25,0Zm3.609,6.448a3.955,3.955,0,0,0-3.4-1.948H14.25a3.75,3.75,0,0,0,0,7.5h6.872ZM33.75,4.5h-.206a3.955,3.955,0,0,0-3.4,1.948L26.878,12H33.75a3.75,3.75,0,0,0,0-7.5ZM3,27H21V48H7.5A4.5,4.5,0,0,1,3,43.5ZM27,48V27H45V43.5A4.5,4.5,0,0,1,40.5,48Z"/>
</svg>
