<svg xmlns="http://www.w3.org/2000/svg" xmlns:xlink="http://www.w3.org/1999/xlink" width="55" height="55" viewBox="0 0 55 55">
  <defs>
    <style>
      .cls-1 {
        fill: #fff;
      }

      .cls-2 {
        clip-path: url(#clip-path);
      }

      .cls-3 {
        fill: #fc0;
      }
    </style>
    <clipPath id="clip-path">
      <path id="Path_197" data-name="Path 197" class="cls-1" d="M3931.294,778.456h13.469l-7.986-6.956-7.987,6.956Z" transform="translate(-3928.79 -771.5)"/>
    </clipPath>
  </defs>
  <g id="gift" transform="translate(-296.073 -997.675)">
    <path id="noun-gift-103997" class="cls-1" d="M193.859,79.973h-2.211c1.1-.78,1.9-3.646,1.9-5.679,0-4.9-2.741-8.219-7.157-8.219-2.942,0-7.707,2.743-14.517,8.613a6.571,6.571,0,0,0-3.995-1.455,6.5,6.5,0,0,0-4.184,1.5c-6.911-5.974-11.724-8.922-14.669-8.922-4.37,0-7.088,3.59-7.088,8.486,0,2.033.859,4.82,1.918,5.671h-2.709A1.055,1.055,0,0,0,140,81V94.609a1.241,1.241,0,0,0,1.144,1.248h1.148v23.8c0,.629.328,1.155.96,1.155h48.494c.634,0,.962-.526.962-1.155v-23.8h1.148A1.241,1.241,0,0,0,195,94.609V81.039a1.082,1.082,0,0,0-1.144-1.067Zm-1.148,13.615h-13.75V82.242h13.75Zm-17.827,0H158.336V82.242h18.333V93.588ZM150.749,76.711c0-2.019.985-3.32,2.927-3.32.99,0,3.208,1.232,8.039,4.854a4.938,4.938,0,0,0-.3,1.729H153.8a3.3,3.3,0,0,1-3.05-3.263Zm23.2,1.114c3.653-2.746,6.245-4.434,7.682-4.434,1.978,0,2.981,1.441,2.981,3.458a3.109,3.109,0,0,1-3,3.122h-7.271a6.781,6.781,0,0,0-.392-2.147Zm17.3-3.53c0,2.97-2,5.679-4.764,5.679h-.4a8.941,8.941,0,0,0,.813-3.263c0-3.274-2.021-5.589-5.273-5.589a5.551,5.551,0,0,0-1.758.161c3.713-2.562,5.61-2.868,6.515-2.868,4.237,0,4.867,3.762,4.867,5.879ZM167.879,76.55a3.96,3.96,0,0,1,4.173,3.424h-8.347A3.961,3.961,0,0,1,167.879,76.55Zm-23.65-2.255c0-2.117.621-5.95,4.8-5.95.91,0,2.832.386,6.648,3.048a6.5,6.5,0,0,0-2-.479c-3.218,0-5.218,2.557-5.218,5.832a8.478,8.478,0,0,0,.846,3.227h-.245c-2.755,0-4.831-2.757-4.831-5.677Zm-1.934,7.948h13.75V93.588h-13.75Zm2.292,13.615h13.75v22.691h-13.75Zm16.042,22.691V95.857h13.75v22.691Zm29.792,0h-13.75V95.857h13.75Z" transform="translate(156.071 931.859)"/>
    <g id="Mask_Group_5" data-name="Mask Group 5" class="cls-2" transform="translate(315.947 1004.89)">
      <ellipse id="Ellipse_25" data-name="Ellipse 25" class="cls-3" cx="4.186" cy="3.281" rx="4.186" ry="3.281" transform="translate(3.8 3.478)"/>
    </g>
  </g>
</svg>
