<svg xmlns="http://www.w3.org/2000/svg" width="76" height="76" viewBox="0 0 76 76">
  <defs>
    <style>
      .cls-1 {
        fill: #383838;
      }
    </style>
  </defs>
  <path id="headset-solid" class="cls-1" d="M28.366,33.25a4.752,4.752,0,0,0-4.75-4.756l-2.241.006a9.5,9.5,0,0,0-9.5,9.512v7.094a9.513,9.513,0,0,0,9.5,9.519H23.75a4.756,4.756,0,0,0,4.75-4.759ZM38,0C16.759,0,.68,17.679,0,38l0,5.938A3.533,3.533,0,0,0,3.429,47.5a3.766,3.766,0,0,0,3.7-3.562V38a30.875,30.875,0,0,1,61.75,0V59.375a5.938,5.938,0,0,1-5.938,5.937H46.505a7.081,7.081,0,0,0-6.13-3.562H35.892a7.3,7.3,0,0,0-7.254,5.713A7.106,7.106,0,0,0,35.491,76h4.884a7.093,7.093,0,0,0,6.136-3.562H62.937A13.063,13.063,0,0,0,76,59.375V38C75.317,17.679,59.241,0,38,0ZM54.625,54.625a9.509,9.509,0,0,0,9.5-9.519V38.015a9.512,9.512,0,0,0-9.5-9.515H52.25a4.754,4.754,0,0,0-4.75,4.756v16.6a4.748,4.748,0,0,0,4.75,4.765Z"/>
</svg>
