<svg xmlns="http://www.w3.org/2000/svg" width="94" height="94" viewBox="0 0 94 94">
  <defs>
    <style>
      .cls-1 {
        fill: #ffcf00;
      }

      .cls-2 {
        fill: #383838;
      }
    </style>
  </defs>
  <g id="number2" transform="translate(-218 -2988)">
    <g id="Group_92" data-name="Group 92" transform="translate(218 2988)">
      <circle id="Ellipse_22" data-name="Ellipse 22" class="cls-1" cx="47" cy="47" r="47"/>
    </g>
    <path id="Path_170" data-name="Path 170" class="cls-2" d="M41.37,52.78V63H2.38v-.14a23.748,23.748,0,0,1,.42-4.585,25.829,25.829,0,0,1,1.015-3.78,11.91,11.91,0,0,1,1.89-3.29Q7,49.56,7.98,48.475a20.515,20.515,0,0,1,3.045-2.59Q13.09,44.38,14.35,43.54t3.92-2.555q2.66-1.715,4.13-2.695a25.7,25.7,0,0,0,5.04-4.06,6.5,6.5,0,0,0,1.4-4.06,5.749,5.749,0,0,0-1.785-4.445,6.8,6.8,0,0,0-4.8-1.645q-7.56,0-7.56,9.8H3.43q0-9.38,4.83-14.7t14.56-5.32q8.26,0,13.125,4.165A14.03,14.03,0,0,1,40.81,29.26a19.3,19.3,0,0,1-.385,3.99,9.683,9.683,0,0,1-1.505,3.465Q37.8,38.36,37.03,39.34a15.383,15.383,0,0,1-2.8,2.485q-2.03,1.505-2.87,2.03T27.93,46.06q-.98.63-2.835,1.785t-2.59,1.645q-.735.49-1.855,1.365a23.74,23.74,0,0,0-2.17,1.925Z" transform="translate(242 2994)"/>
  </g>
</svg>
