<svg xmlns="http://www.w3.org/2000/svg" width="94" height="94" viewBox="0 0 94 94">
  <defs>
    <style>
      .cls-1 {
        fill: #ffcf00;
      }

      .cls-2 {
        fill: #383838;
      }
    </style>
  </defs>
  <g id="number3" transform="translate(-218 -2988)">
    <g id="Group_92" data-name="Group 92" transform="translate(218 2988)">
      <circle id="Ellipse_22" data-name="Ellipse 22" class="cls-1" cx="47" cy="47" r="47"/>
    </g>
    <path id="Path_171" data-name="Path 171" class="cls-2" d="M14.56,30.38H3.29q0-7.63,5.11-12.075T21.91,13.86q8.33,0,13.23,3.71a11.835,11.835,0,0,1,4.9,9.94,9.988,9.988,0,0,1-1.855,6.09,8.523,8.523,0,0,1-5,3.29,11.36,11.36,0,0,1,6.3,3.885,11,11,0,0,1,2.24,7.035q0,7.84-5.845,11.97A23.573,23.573,0,0,1,21.91,63.91q-8.61,0-14.245-4.34T2.03,46.76V45.5H13.37q.14,4.27,1.96,6.335T21.56,53.9a8.943,8.943,0,0,0,5.74-1.68,5.593,5.593,0,0,0,2.1-4.62,5.422,5.422,0,0,0-2.1-4.515,9.2,9.2,0,0,0-5.81-1.645q-.98,0-3.57.07V33.53q.84.07,1.89.07a34.473,34.473,0,0,0,4.27-.28,5.618,5.618,0,0,0,3.43-1.575,4.392,4.392,0,0,0,1.26-3.185,4.647,4.647,0,0,0-1.89-3.85,7.87,7.87,0,0,0-4.97-1.47Q14.77,23.24,14.56,30.38Z" transform="translate(242 2994)"/>
  </g>
</svg>
