<svg xmlns="http://www.w3.org/2000/svg" width="49" height="49" viewBox="0 0 49 49">
  <defs>
    <style>
      .cls-1 {
        fill: #fff;
      }

      .cls-2, .cls-4 {
        fill: none;
      }

      .cls-2 {
        stroke: #fff;
        stroke-width: 5px;
      }

      .cls-3 {
        stroke: none;
      }
    </style>
  </defs>
  <g id="Percent" transform="translate(-534 -910)">
    <path id="Path_172" data-name="Path 172" class="cls-1" d="M24.1,6.152,11.52,29.768H8.352L20.928,6.152Zm-16.16.32a5.3,5.3,0,0,1,4.112,1.552,6.425,6.425,0,0,1,1.424,4.5,6.882,6.882,0,0,1-1.392,4.624A5.011,5.011,0,0,1,8.064,18.76a5.277,5.277,0,0,1-4.112-1.6A6.515,6.515,0,0,1,2.5,12.616,6.622,6.622,0,0,1,3.92,8.088,5.07,5.07,0,0,1,7.936,6.472ZM8,9.032q-1.792,0-1.792,3.616,0,.864.048,1.376a7.317,7.317,0,0,0,.192,1.088,1.443,1.443,0,0,0,.512.848,1.547,1.547,0,0,0,.944.272,1.436,1.436,0,0,0,1.424-.88,8.029,8.029,0,0,0,.4-3.024,5.651,5.651,0,0,0-.416-2.512A1.386,1.386,0,0,0,8,9.032ZM24.768,17.16a5.3,5.3,0,0,1,4.112,1.552,6.425,6.425,0,0,1,1.424,4.5,6.882,6.882,0,0,1-1.392,4.624A5.011,5.011,0,0,1,24.9,29.448a5.277,5.277,0,0,1-4.112-1.6A6.515,6.515,0,0,1,19.328,23.3a6.622,6.622,0,0,1,1.424-4.528A5.07,5.07,0,0,1,24.768,17.16Zm.064,2.56q-1.792,0-1.792,3.616,0,.864.048,1.376A7.317,7.317,0,0,0,23.28,25.8a1.443,1.443,0,0,0,.512.848,1.547,1.547,0,0,0,.944.272,1.436,1.436,0,0,0,1.424-.88,8.029,8.029,0,0,0,.4-3.024,5.651,5.651,0,0,0-.416-2.512A1.386,1.386,0,0,0,24.832,19.72Z" transform="translate(542 916)"/>
    <g id="Ellipse_18" data-name="Ellipse 18" class="cls-2" transform="translate(534 910)">
      <circle class="cls-3" cx="24.5" cy="24.5" r="24.5"/>
      <circle class="cls-4" cx="24.5" cy="24.5" r="22"/>
    </g>
  </g>
</svg>
