<svg xmlns="http://www.w3.org/2000/svg" width="55" height="55" viewBox="0 0 55 55">
  <defs>
    <style>
      .cls-1 {
        fill: #fff;
      }

      .cls-2, .cls-4 {
        fill: none;
      }

      .cls-2 {
        stroke: #fcc330;
        stroke-width: 2px;
      }

      .cls-3 {
        stroke: none;
      }
    </style>
  </defs>
  <g id="percent" transform="translate(-242.662 -618.535)">
    <g id="noun-percent-3070906" transform="translate(246.886 622.968)">
      <path id="Path_178" data-name="Path 178" class="cls-1" d="M109.393,62.593a1.263,1.263,0,0,1,0-1.8l21.782-21.529a1.3,1.3,0,0,1,1.821,0,1.263,1.263,0,0,1,0,1.8L111.216,62.592a1.3,1.3,0,0,1-1.822,0Zm23.982-5.04a5.381,5.381,0,0,1-1.6,3.828,5.523,5.523,0,0,1-7.746,0,5.369,5.369,0,0,1,0-7.656,5.519,5.519,0,0,1,7.745,0A5.387,5.387,0,0,1,133.376,57.552Zm-2.577,0a2.851,2.851,0,0,0-.849-2.027,2.924,2.924,0,0,0-4.1,0,2.843,2.843,0,0,0,0,4.054,2.922,2.922,0,0,0,4.1,0,2.852,2.852,0,0,0,.85-2.026ZM109.016,44.3a5.383,5.383,0,0,1,1.6-3.828,5.523,5.523,0,0,1,7.747,0,5.369,5.369,0,0,1,0,7.656,5.519,5.519,0,0,1-7.745,0A5.388,5.388,0,0,1,109.016,44.3Zm2.577,0a2.85,2.85,0,0,0,.849,2.027,2.924,2.924,0,0,0,4.1,0,2.843,2.843,0,0,0,0-4.054,2.922,2.922,0,0,0-4.1,0,2.852,2.852,0,0,0-.85,2.026ZM98,50.928a22.793,22.793,0,0,1,6.794-16.212,23.391,23.391,0,0,1,32.806,0,22.739,22.739,0,0,1,0,32.424,23.372,23.372,0,0,1-32.8-.007,22.82,22.82,0,0,1-6.8-16.2Zm2.062,0A20.766,20.766,0,0,0,106.25,65.7a21.311,21.311,0,0,0,29.889,0,20.717,20.717,0,0,0,0-29.541,21.295,21.295,0,0,0-29.883.007,20.793,20.793,0,0,0-6.2,14.764Z" transform="translate(-97.998 -28.001)"/>
      <g id="Ellipse_24" data-name="Ellipse 24" class="cls-2" transform="translate(-4.224 -4.433)">
        <ellipse class="cls-3" cx="27.5" cy="27.5" rx="27.5" ry="27.5"/>
        <ellipse class="cls-4" cx="27.5" cy="27.5" rx="26.5" ry="26.5"/>
      </g>
    </g>
  </g>
</svg>
