<svg xmlns="http://www.w3.org/2000/svg" width="25.202" height="25.2" viewBox="0 0 25.202 25.2">
  <defs>
    <style>
      .cls-1 {
        fill: #fff;
      }
    </style>
  </defs>
  <path id="screwdriver-wrench-solid" class="cls-1" d="M16.331,11.029a5.176,5.176,0,0,1,3.685,1.524l.964.964A7.064,7.064,0,0,0,25,8.76a7.174,7.174,0,0,0,.011-3.367.715.715,0,0,0-1.2-.325L20.418,8.46H16.7V4.783l3.391-3.391a.715.715,0,0,0-.325-1.2A7.174,7.174,0,0,0,16.4.2a7.075,7.075,0,0,0-5.276,5.729,6.5,6.5,0,0,0-.081,1.2l4.074,4.078A3.748,3.748,0,0,1,16.331,11.029ZM18.9,13.711a3.652,3.652,0,0,0-4.2-.684L9.406,7.775V4.723L3.15,0,0,3.1,4.725,9.36H7.779l5.252,5.247a3.652,3.652,0,0,0,.685,4.2l5.759,5.764a1.839,1.839,0,0,0,2.594,0l2.6-2.6a1.839,1.839,0,0,0,0-2.594Zm-7.683,1.4L8.3,12.2.975,19.529a3.321,3.321,0,1,0,4.7,4.7l5.862-5.862A5.227,5.227,0,0,1,11.217,15.109ZM3.15,23.23a1.181,1.181,0,1,1,1.181-1.181A1.182,1.182,0,0,1,3.15,23.23Z" transform="translate(0 0.002)"/>
</svg>
