<svg xmlns="http://www.w3.org/2000/svg" width="55" height="51.535" viewBox="0 0 55 51.535">
  <defs>
    <style>
      .cls-1 {
        fill: #fff;
      }

      .cls-2 {
        fill: #fc0;
      }

      .cls-3 {
        fill: #ff605c;
      }

      .cls-4 {
        fill: #00ca4e;
      }
    </style>
  </defs>
  <g id="support" transform="translate(-73.25 -27.575)">
    <path id="Path_191" data-name="Path 191" class="cls-1" d="M134.958,69.151h-1.949V36.887a.654.654,0,0,0-.65-.65h-8.012V28.225a.654.654,0,0,0-.65-.65H92.517a.654.654,0,0,0-.65.65v8.012H83.856a.654.654,0,0,0-.65.65V69.151H81.257a.654.654,0,0,0-.65.65V75a.654.654,0,0,0,.65.65h3.265L89.555,79a.667.667,0,0,0,.364.112H126.3A.623.623,0,0,0,126.66,79l5.032-3.352h3.266a.654.654,0,0,0,.65-.65V69.8a.655.655,0,0,0-.65-.65ZM124.348,41h3.9V65.686h-3.9ZM87.97,65.686V41h3.9V65.686Zm5.2-31.615h29.882V65.686H93.167Zm0-5.2h29.882v3.9H93.167Zm-8.661,8.661h7.362V39.7H87.32a.654.654,0,0,0-.65.65V66.336a.654.654,0,0,0,.65.65H128.9a.654.654,0,0,0,.65-.65V40.351a.654.654,0,0,0-.65-.65h-4.547V37.536h7.362V69.151h-47.2ZM126.1,77.811H90.118L86.87,75.646h42.476Zm8.211-3.464h-52.4v-3.9h52.4Z" transform="translate(-7.358)"/>
    <path id="Path_192" data-name="Path 192" class="cls-2" d="M313.962,460.3h-3.438a.653.653,0,1,0,0,1.306h3.438a.653.653,0,0,0,0-1.306Z" transform="translate(-213.228 -388.588)"/>
    <path id="Path_193" data-name="Path 193" class="cls-3" d="M224.472,51.781a.87.87,0,1,1-.87-.87.87.87,0,0,1,.87.87" transform="translate(-134.976 -20.941)"/>
    <path id="Path_194" data-name="Path 194" class="cls-4" d="M258.412,51.781a.87.87,0,1,1-.87-.87.871.871,0,0,1,.87.87" transform="translate(-165.452 -20.941)"/>
    <path id="Path_195" data-name="Path 195" class="cls-2" d="M292.342,51.781a.87.87,0,1,1-.87-.87.87.87,0,0,1,.87.87" transform="translate(-195.919 -20.941)"/>
    <path id="Path_196" data-name="Path 196" class="cls-2" d="M249.808,125a.636.636,0,0,0-.627.166l-2.794,2.794-2.463-.618-.618-2.463,2.794-2.794a.657.657,0,0,0,.166-.636.65.65,0,0,0-.461-.461,6.292,6.292,0,0,0-7.8,7.337l-5.64,5.64a6.294,6.294,0,0,0-7.346,7.8.652.652,0,0,0,1.088.3l2.794-2.794,2.463.618.618,2.463-2.794,2.794a.657.657,0,0,0-.165.636.65.65,0,0,0,.461.461,6.463,6.463,0,0,0,1.628.209,6.3,6.3,0,0,0,6.18-7.564l5.64-5.64a6.294,6.294,0,0,0,7.346-7.8.688.688,0,0,0-.47-.444Zm-2.089,5.623a5.013,5.013,0,0,1-4.822,1.3.641.641,0,0,0-.627.165l-6.154,6.154a.641.641,0,0,0-.165.627,4.992,4.992,0,0,1-4.9,6.293l2.133-2.133a.655.655,0,0,0,.174-.618l-.8-3.195a.667.667,0,0,0-.479-.479l-3.195-.8a.651.651,0,0,0-.618.174l-2.133,2.133a4.992,4.992,0,0,1,6.293-4.9.641.641,0,0,0,.627-.165l6.154-6.154a.641.641,0,0,0,.166-.627,5.025,5.025,0,0,1,1.288-4.831,5.08,5.08,0,0,1,3.612-1.462l-2.133,2.133a.655.655,0,0,0-.174.618l.8,3.195a.667.667,0,0,0,.479.479l3.195.8a.651.651,0,0,0,.618-.174l2.133-2.133A5.033,5.033,0,0,1,247.719,130.626Z" transform="translate(-136.898 -83.733)"/>
  </g>
</svg>
