<svg xmlns="http://www.w3.org/2000/svg" width="59.999" height="48" viewBox="0 0 59.999 48">
  <defs>
    <style>
      .cls-1 {
        fill: #fff;
      }
    </style>
  </defs>
  <path id="user-gear-solid" class="cls-1" d="M39.853,45.244q-.324-.176-.638-.368l-.733.421a3.676,3.676,0,0,1-1.852.5,3.745,3.745,0,0,1-2.716-1.2,17.279,17.279,0,0,1-3.771-6.553,3.623,3.623,0,0,1,1.672-4.241l.752-.438q-.009-.369,0-.737l-.718-.418a3.633,3.633,0,0,1-1.841-3.129,16.128,16.128,0,0,0-4.255-.587H16.247A16.257,16.257,0,0,0,0,44.756,3.247,3.247,0,0,0,3.249,48h35.5a3.171,3.171,0,0,0,1.468-.393,3.61,3.61,0,0,1-.362-1.506ZM21,24A12,12,0,1,0,9,12,12,12,0,0,0,21,24ZM57.234,35a10.844,10.844,0,0,0,0-3.984l2.414-1.406a.676.676,0,0,0,.316-.8,14.238,14.238,0,0,0-3.117-5.379A.676.676,0,0,0,56,23.3L53.59,24.7A10.964,10.964,0,0,0,50.132,22.7V19.9a.677.677,0,0,0-.539-.656,14.061,14.061,0,0,0-6.211,0,.667.667,0,0,0-.527.656v2.8A10.964,10.964,0,0,0,39.4,24.7l-2.423-1.4a.681.681,0,0,0-.844.129,14.068,14.068,0,0,0-3.106,5.379.684.684,0,0,0,.3.8l2.414,1.406a11.377,11.377,0,0,0,0,3.984L33.33,36.4a.67.67,0,0,0-.3.8,14.153,14.153,0,0,0,3.106,5.379.679.679,0,0,0,.844.129l2.426-1.4A10.964,10.964,0,0,0,42.859,43.3v2.8a.667.667,0,0,0,.527.656,14.061,14.061,0,0,0,6.211,0,.677.677,0,0,0,.539-.656V43.3a10.964,10.964,0,0,0,3.458-1.992l2.414,1.4a.679.679,0,0,0,.844-.129A14.238,14.238,0,0,0,59.969,37.2a.676.676,0,0,0-.316-.8ZM46.5,37.547A4.547,4.547,0,1,1,51.047,33,4.551,4.551,0,0,1,46.5,37.547Z"/>
</svg>
