<svg xmlns="http://www.w3.org/2000/svg" xmlns:xlink="http://www.w3.org/1999/xlink" width="1126.992" height="409.636" viewBox="0 0 1126.992 409.636">
  <defs>
    <style>
      .cls-1 {
        fill: url(#linear-gradient);
      }

      .cls-2 {
        fill: #d1d3d4;
      }

      .cls-3 {
        fill: #231f20;
      }

      .cls-4 {
        fill: #a8a8a8;
      }

      .cls-23, .cls-27, .cls-5, .cls-6 {
        fill: #fff;
      }

      .cls-5 {
        opacity: 0.3;
      }

      .cls-7 {
        fill: url(#linear-gradient-2);
      }

      .cls-8 {
        fill: url(#linear-gradient-3);
      }

      .cls-9 {
        fill: #414042;
      }

      .cls-10 {
        fill: #e6e7e8;
      }

      .cls-11 {
        fill: #939598;
      }

      .cls-12 {
        fill: #6d6e71;
      }

      .cls-13 {
        fill: #808285;
      }

      .cls-14 {
        fill: #ffc300;
      }

      .cls-15 {
        fill: #ffdb66;
      }

      .cls-16 {
        fill: #ffe9a3;
      }

      .cls-17 {
        fill: #8f1622;
      }

      .cls-18 {
        fill: #ed1c24;
      }

      .cls-19, .cls-20, .cls-21, .cls-27, .cls-33, .cls-35 {
        opacity: 0.8;
      }

      .cls-19 {
        fill: url(#linear-gradient-4);
      }

      .cls-20 {
        fill: url(#linear-gradient-5);
      }

      .cls-21 {
        fill: url(#linear-gradient-6);
      }

      .cls-22 {
        fill: #709aa3;
      }

      .cls-23, .cls-29 {
        opacity: 0.5;
      }

      .cls-24 {
        fill: url(#linear-gradient-7);
      }

      .cls-25 {
        fill: #384d52;
      }

      .cls-26 {
        fill: #bcbec0;
      }

      .cls-28 {
        fill: #a7a9ac;
      }

      .cls-30 {
        fill: url(#linear-gradient-8);
      }

      .cls-31 {
        fill: #f1f2f2;
      }

      .cls-32 {
        fill: url(#linear-gradient-9);
      }

      .cls-33 {
        fill: url(#linear-gradient-10);
      }

      .cls-34 {
        fill: #75c5bc;
      }

      .cls-35 {
        fill: url(#linear-gradient-11);
      }

      .cls-36 {
        fill: #3c2415;
      }

      .cls-37 {
        fill: #1e120b;
      }

      .cls-38 {
        fill: #603913;
      }

      .cls-39 {
        fill: #754c29;
      }

      .cls-40 {
        fill: #c2b59b;
      }

      .cls-41 {
        fill: #bf9200;
      }

      .cls-42 {
        fill: #ffe6c8;
      }

      .cls-43 {
        fill: #bfa17a;
      }

      .cls-44 {
        fill: #ffcf33;
      }

      .cls-45 {
        fill: url(#linear-gradient-12);
      }

      .cls-46 {
        fill: url(#linear-gradient-13);
      }

      .cls-47 {
        fill: url(#linear-gradient-14);
      }

      .cls-48 {
        fill: url(#linear-gradient-15);
      }

      .cls-49 {
        fill: url(#linear-gradient-16);
      }

      .cls-50 {
        fill: url(#linear-gradient-17);
      }

      .cls-51 {
        fill: url(#linear-gradient-18);
      }

      .cls-52 {
        fill: url(#linear-gradient-19);
      }

      .cls-53 {
        fill: url(#linear-gradient-20);
      }

      .cls-54 {
        fill: url(#linear-gradient-21);
      }

      .cls-55 {
        fill: url(#linear-gradient-22);
      }

      .cls-56 {
        fill: url(#linear-gradient-23);
      }

      .cls-57 {
        fill: url(#linear-gradient-24);
      }

      .cls-58 {
        fill: url(#linear-gradient-25);
      }
    </style>
    <linearGradient id="linear-gradient" x1="0.5" y1="1" x2="0.5" gradientUnits="objectBoundingBox">
      <stop offset="0" stop-color="#fff"/>
      <stop offset="0.14" stop-color="#d0d0d0"/>
      <stop offset="0.38" stop-color="#878787"/>
      <stop offset="0.59" stop-color="#4d4d4d"/>
      <stop offset="0.77" stop-color="#232323"/>
      <stop offset="0.92" stop-color="#090909"/>
      <stop offset="1"/>
    </linearGradient>
    <linearGradient id="linear-gradient-2" x1="1.319" y1="1" x2="1.319" gradientUnits="objectBoundingBox">
      <stop offset="0"/>
      <stop offset="0.14"/>
      <stop offset="0.99"/>
    </linearGradient>
    <linearGradient id="linear-gradient-3" x1="1.292" y1="1" x2="1.292" gradientUnits="objectBoundingBox">
      <stop offset="0"/>
      <stop offset="0.99"/>
    </linearGradient>
    <linearGradient id="linear-gradient-4" x1="0.409" y1="0.5" x2="1.409" y2="0.5" gradientUnits="objectBoundingBox">
      <stop offset="0" stop-color="#fff"/>
      <stop offset="1" stop-color="#fff"/>
    </linearGradient>
    <linearGradient id="linear-gradient-5" x1="2.025" y1="0.5" x2="3.025" y2="0.5" xlink:href="#linear-gradient-4"/>
    <linearGradient id="linear-gradient-6" x1="11.068" y1="0.5" x2="12.068" y2="0.5" xlink:href="#linear-gradient-4"/>
    <linearGradient id="linear-gradient-7" x1="8.536" y1="1" x2="8.536" gradientUnits="objectBoundingBox">
      <stop offset="0.38" stop-color="#fff"/>
      <stop offset="1" stop-color="#fff"/>
    </linearGradient>
    <linearGradient id="linear-gradient-8" x1="0.775" y1="0.5" x2="1.775" y2="0.5" gradientUnits="objectBoundingBox">
      <stop offset="0"/>
      <stop offset="0.86"/>
      <stop offset="1"/>
    </linearGradient>
    <linearGradient id="linear-gradient-9" x1="1.167" y1="1" x2="1.167" y2="0" xlink:href="#linear-gradient-7"/>
    <linearGradient id="linear-gradient-10" x1="9.738" y1="-1.062" x2="9.738" y2="-2.2" xlink:href="#linear-gradient-4"/>
    <linearGradient id="linear-gradient-11" x1="14.423" y1="0.693" x2="14.591" y2="0.444" xlink:href="#linear-gradient-4"/>
    <linearGradient id="linear-gradient-12" x1="681.279" y1="-271.008" x2="722.123" y2="-271.008" xlink:href="#linear-gradient-8"/>
    <linearGradient id="linear-gradient-13" x1="684.961" y1="-271.72" x2="725.807" y2="-271.72" xlink:href="#linear-gradient-8"/>
    <linearGradient id="linear-gradient-14" x1="683.131" y1="-271.363" x2="723.975" y2="-271.363" xlink:href="#linear-gradient-8"/>
    <linearGradient id="linear-gradient-15" x1="690.442" y1="-272.865" x2="731.284" y2="-272.865" xlink:href="#linear-gradient-8"/>
    <linearGradient id="linear-gradient-16" x1="686.794" y1="-272.076" x2="727.639" y2="-272.076" xlink:href="#linear-gradient-8"/>
    <linearGradient id="linear-gradient-17" x1="688.626" y1="-272.432" x2="729.472" y2="-272.432" xlink:href="#linear-gradient-8"/>
    <linearGradient id="linear-gradient-18" x1="685.935" y1="-271.795" x2="726.779" y2="-271.795" xlink:href="#linear-gradient-8"/>
    <linearGradient id="linear-gradient-19" x1="689.62" y1="-272.508" x2="730.463" y2="-272.508" xlink:href="#linear-gradient-8"/>
    <linearGradient id="linear-gradient-20" x1="687.787" y1="-272.151" x2="728.631" y2="-272.151" xlink:href="#linear-gradient-8"/>
    <linearGradient id="linear-gradient-21" x1="691.452" y1="-272.941" x2="732.297" y2="-272.941" xlink:href="#linear-gradient-8"/>
    <linearGradient id="linear-gradient-22" x1="685.616" y1="-271.517" x2="726.551" y2="-271.517" xlink:href="#linear-gradient-8"/>
    <linearGradient id="linear-gradient-23" x1="682.29" y1="-271.162" x2="723.134" y2="-271.162" xlink:href="#linear-gradient-8"/>
    <linearGradient id="linear-gradient-24" x1="448.445" y1="-247.491" x2="537.815" y2="-247.491" xlink:href="#linear-gradient-8"/>
    <linearGradient id="linear-gradient-25" x1="82.766" y1="0.5" x2="83.765" y2="0.5" gradientUnits="objectBoundingBox">
      <stop offset="0" stop-color="#f1f2f2"/>
      <stop offset="0.12" stop-color="#e3e4e4"/>
      <stop offset="0.35" stop-color="#bebfbf"/>
      <stop offset="0.67" stop-color="#838384"/>
      <stop offset="0.99" stop-color="#414042"/>
    </linearGradient>
  </defs>
  <g id="Taxi" transform="translate(-251.207 -231.825)">
    <g id="phone" transform="translate(251.207 347.575)">
      <g id="Group_7" data-name="Group 7">
        <path id="Path_3" data-name="Path 3" class="cls-1" d="M1298.515,1890.982a52.486,52.486,0,0,0-45.261-26.163H397.013a52.486,52.486,0,0,0-45.261,26.163l-79.994,136.776c-14.067,24.051,3,54.507,30.541,54.507H1347.971c27.542,0,44.608-30.456,30.541-54.507l-79.994-136.776Z" transform="translate(-261.639 -1788.379)"/>
        <g id="Group_6" data-name="Group 6">
          <path id="Path_4" data-name="Path 4" d="M1289.858,1623.074c-9.573-18.442-26.928-29.744-45.672-29.744H380.148c-18.743,0-36.1,11.3-45.672,29.744l-80.723,155.511c-14.193,27.345,3.027,61.971,30.82,61.971H1339.761c27.793,0,45.013-34.629,30.819-61.971Z" transform="translate(-248.671 -1593.33)"/>
          <path id="Path_5" data-name="Path 5" class="cls-2" d="M327.024,1789.378l83.837-167.171c4.558-9.092,25.791-16.328,47.5-16.328h818.115c21.714,0,42.943,7.236,47.5,16.328l83.837,167.171c6.53,13.02-9.745,23.809-36.49,23.809H363.514c-26.748,0-43.02-10.787-36.49-23.809Z" transform="translate(-303.927 -1602.346)"/>
          <path id="Path_6" data-name="Path 6" class="cls-3" d="M336.212,1775.235l83.1-165.707c4.522-9.018,25.656-16.2,47.282-16.2H1281.48c21.627,0,42.761,7.18,47.282,16.2l83.1,165.707c6.467,12.9-9.753,23.578-36.369,23.578H372.584c-26.619,0-42.837-10.682-36.369-23.578Z" transform="translate(-310.545 -1593.33)"/>
          <path id="Path_7" data-name="Path 7" class="cls-4" d="M1367.962,1724.145h0c-11.693,0-23.068-4.356-25.383-9.677l-16.488-37.89c-2.123-4.877,5.124-8.793,16.167-8.793h0c15.505,0,25.433-5.445,22.212-12.082l-18.563-38.236c-2.863-5.9-16.671-10.618-30.879-10.618H498.256c-16.477,0-32.523,5.482-35.882,12.341l-81.247,165.828c-4.781,9.756,7.565,17.8,27.655,17.8h995.746c17.319,0,27.99-6.938,23.893-15.379l-23.975-49.383C1400.693,1730.325,1384.382,1724.145,1367.962,1724.145Z" transform="translate(-343.094 -1603.043)"/>
          <path id="Path_8" data-name="Path 8" class="cls-5" d="M962.8,1657.011c187.891,0,367.093,14.368,525.062,39.875l-43.811-87.357c-4.522-9.018-25.656-16.2-47.282-16.2H581.885c-21.627,0-42.761,7.18-47.283,16.2l-39.342,78.448c143.672-19.892,302.3-30.969,467.539-30.969Z" transform="translate(-425.83 -1593.33)"/>
          <g id="Group_5" data-name="Group 5" transform="translate(889.744 56.484)">
            <g id="Group_3" data-name="Group 3" transform="translate(120.649 93.115)">
              <g id="Group_2" data-name="Group 2">
                <path id="Path_9" data-name="Path 9" class="cls-6" d="M3856.649,2169.871l-1.259-2.931h34.162l1.355,2.931Z" transform="translate(-3850.274 -2155.033)"/>
                <path id="Path_10" data-name="Path 10" class="cls-6" d="M3850.541,2155.641l-1.25-2.911h25.549l1.32,2.911Z" transform="translate(-3845.892 -2144.824)"/>
                <path id="Path_11" data-name="Path 11" class="cls-6" d="M3844.472,2141.529l-1.242-2.889h17l1.286,2.889Z" transform="translate(-3841.538 -2134.701)"/>
                <path id="Path_12" data-name="Path 12" class="cls-6" d="M3838.454,2127.516l-1.233-2.866h8.52l1.255,2.866Z" transform="translate(-3837.22 -2124.65)"/>
              </g>
              <path id="Path_13" data-name="Path 13" class="cls-6" d="M3904.631,2207.166h2.734l-2.292-4.958h-2.723l-.971-2.118H3869.63l3.961,9.219h32.025l-.985-2.145Zm-10.891-6.468h6.451l3.663,7.993h-6.5Z" transform="translate(-3860.505 -2178.849)"/>
            </g>
            <g id="Group_4" data-name="Group 4">
              <path id="Path_14" data-name="Path 14" class="cls-6" d="M3459.876,1798.3l-.025-.067-6.955-3.736,5.789-.56,8.711,4.694,1.011,2.5h-58.717l-.972-2.83h51.157Z" transform="translate(-3408.72 -1793.94)"/>
              <path id="Path_15" data-name="Path 15" class="cls-6" d="M3460.956,1861.985c-20.441,0-32.718-2.9-34.412-7.85-1.49-4.356,8.334-7.318,27.888-7.385,19.943,0,32.089,3.235,33.925,7.765,1.912,4.713-8.256,7.47-27.4,7.47Zm-5.482-12.206c-15.438,0-23.586,1.78-22.629,4.528,1.073,3.077,11.273,4.573,26.579,4.573s23.879-1.391,22.609-4.573c-1.042-2.613-10.392-4.528-26.562-4.528Z" transform="translate(-3421.42 -1831.881)"/>
              <path id="Path_16" data-name="Path 16" class="cls-6" d="M3480.383,1911.83c3.432,0,6.186.881,6.653,2.083.493,1.276-1.613,2.092-5.059,2.092-3.261,0-6.084-.817-6.578-2.129C3474.948,1912.675,3477.136,1911.83,3480.383,1911.83Zm-32.757,0c3.432,0,6.158.881,6.583,2.083.451,1.276-1.684,2.092-5.13,2.092-3.261,0-6.057-.817-6.5-2.129-.411-1.2,1.8-2.047,5.054-2.047Z" transform="translate(-3433.007 -1878.637)"/>
              <path id="Path_17" data-name="Path 17" class="cls-6" d="M3492.819,1951.816c-20.985,0-33.613-3.052-35.395-8.269-1.568-4.587,8.483-7.706,28.547-7.777,20.461,0,32.959,3.4,34.9,8.177,2.013,4.964-8.393,7.869-28.046,7.869Zm-5.75-12.856c-15.841,0-24.186,1.873-23.178,4.77,1.129,3.241,11.614,4.815,27.325,4.815s24.5-1.464,23.159-4.815C3513.277,1940.979,3503.662,1938.96,3487.07,1938.96Z" transform="translate(-3443.597 -1895.836)"/>
              <path id="Path_18" data-name="Path 18" class="cls-6" d="M3537.518,2017.583l-3.73-9.387-16.345-.937a7.878,7.878,0,0,1,1.045,1.988,4.325,4.325,0,0,1-1.352,5.288c-1.968,1.94-6.876,3.545-14.7,3.545-12.276,0-22.772-3.846-24.594-9.17a5.338,5.338,0,0,1,1.74-6.048l6.667.816a4.861,4.861,0,0,0-1.608,5.229c1.076,3.089,7.23,5.817,15.6,5.777,8.092,0,12.966-2.159,11.142-7.016a15.266,15.266,0,0,0-1.847-3.4l30.384,1.565,4.75,11.744h-7.149Z" transform="translate(-3458.146 -1944.037)"/>
            </g>
          </g>
        </g>
      </g>
    </g>
    <g id="taxi-2" data-name="taxi" transform="translate(411.585 231.825)">
      <g id="Group_78" data-name="Group 78">
        <g id="Group_10" data-name="Group 10" transform="translate(0 185.939)">
          <g id="Group_8" data-name="Group 8" transform="translate(7.622)">
            <path id="Path_19" data-name="Path 19" class="cls-7" d="M860.573,1945.649H1439.86c33.21,0,58.8-15.041,54.355-31.949l-8.334-31.67c-3.677-13.974-26.9-24.4-54.352-24.4H833.636c-27.173,0-50.253,10.221-54.251,24.028l-3.857,13.321c-7.729,26.689,32.52,50.667,85.048,50.667Z" transform="translate(-774.574 -1857.63)"/>
          </g>
          <g id="Group_9" data-name="Group 9" transform="translate(0 21.12)">
            <path id="Path_20" data-name="Path 20" class="cls-8" d="M835.808,2037.749h594.815c34.1,0,60.378-17.964,55.811-38.151l-8.557-37.819c-3.776-16.688-27.624-29.138-55.811-29.138H808.147c-27.9,0-51.6,12.205-55.7,28.694l-3.962,15.908C740.545,2009.112,781.875,2037.749,835.808,2037.749Z" transform="translate(-747.503 -1932.64)"/>
          </g>
        </g>
        <rect id="Rectangle_5" data-name="Rectangle 5" width="625.244" height="81.861" transform="translate(701.616 236.539) rotate(180)"/>
        <g id="Group_15" data-name="Group 15" transform="translate(562.714 165.485)">
          <circle id="Ellipse_1" data-name="Ellipse 1" class="cls-9" cx="41.201" cy="41.201" r="41.201" transform="translate(0 58.267) rotate(-45)"/>
          <g id="Group_12" data-name="Group 12" transform="translate(8.186 7.932)">
            <circle id="Ellipse_2" data-name="Ellipse 2" cx="35.415" cy="35.415" r="35.415" transform="translate(0 50.084) rotate(-45)"/>
            <path id="Path_21" data-name="Path 21" class="cls-10" d="M2833.04,1904.9a33.775,33.775,0,1,0,33.776-33.787A33.783,33.783,0,0,0,2833.04,1904.9Zm10.8,21.258a31.3,31.3,0,0,1-6.7-11.285l24.493-6.588-17.789,17.87Zm17.468-24.076-24.386-6.561a31.261,31.261,0,0,1,6.5-11.411l17.888,17.969Zm5.513-28.522a31.439,31.439,0,0,1,6.22.623l-6.543,24.515-6.5-24.369A31.353,31.353,0,0,1,2866.816,1873.557Zm5.51,34.167,24.383,6.558a31.259,31.259,0,0,1-6.5,11.409l-17.885-17.969Zm-.324-6.206,17.789-17.871a31.3,31.3,0,0,1,6.7,11.285l-24.49,6.588Zm-5.189,34.728a31.463,31.463,0,0,1-6.222-.622l6.543-24.515,6.5,24.369A31.334,31.334,0,0,1,2866.813,1936.246Z" transform="translate(-2816.735 -1854.792)"/>
          </g>
          <g id="Group_14" data-name="Group 14" transform="translate(45.908 45.616)">
            <g id="Group_13" data-name="Group 13" transform="translate(2.098 3.811)">
              <path id="Path_24" data-name="Path 24" class="cls-11" d="M2926.818,1960.53a10.256,10.256,0,0,0-10.258,10.257c0,5.665,4.593,19.343,10.258,19.343s10.257-13.678,10.257-19.343A10.257,10.257,0,0,0,2926.818,1960.53Z" transform="translate(-2916.56 -1960.53)"/>
            </g>
            <circle id="Ellipse_3" data-name="Ellipse 3" class="cls-6" cx="10.257" cy="10.257" r="10.257" transform="translate(0 4.712) rotate(-13.28)"/>
            <circle id="Ellipse_4" data-name="Ellipse 4" cx="10.257" cy="10.257" r="10.257" transform="translate(2.098 4.929)"/>
          </g>
          <path id="Path_25" data-name="Path 25" class="cls-11" d="M2876.189,2036.047c12.963,0,24.24-6.5,30.1-16.1a31.105,31.105,0,0,1-60.2,0C2851.949,2029.546,2863.226,2036.047,2876.189,2036.047Z" transform="translate(-2817.926 -1953.793)"/>
          <path id="Path_27" data-name="Path 27" class="cls-12" d="M2873.013,1885.584a31.2,31.2,0,0,0-31.188,27.925,26.867,26.867,0,0,1-.155-2.709,31.346,31.346,0,0,1,62.687,0,26.912,26.912,0,0,1-.155,2.709A31.2,31.2,0,0,0,2873.013,1885.584Z" transform="translate(-2814.75 -1853.132)"/>
          <circle id="Ellipse_5" data-name="Ellipse 5" class="cls-6" cx="7.934" cy="7.934" r="7.934" transform="translate(48.705 54.943) rotate(-13.28)"/>
        </g>
        <g id="Group_20" data-name="Group 20" transform="translate(104.091 165.488)">
          <circle id="Ellipse_6" data-name="Ellipse 6" class="cls-9" cx="41.201" cy="41.201" r="41.201" transform="translate(0 58.267) rotate(-45)"/>
          <g id="Group_17" data-name="Group 17" transform="translate(8.186 7.932)">
            <circle id="Ellipse_7" data-name="Ellipse 7" cx="35.415" cy="35.415" r="35.415" transform="translate(0 50.084) rotate(-45)"/>
            <path id="Path_33" data-name="Path 33" class="cls-13" d="M1218.993,1869.5c-17.088,0-32.166,7.062-41.189,17.831,0-.177-.014-.355-.014-.532a41.2,41.2,0,1,1,82.4,0c0,.18-.011.355-.014.532-9.024-10.77-24.1-17.831-41.19-17.831Z" transform="translate(-1168.915 -1836.469)"/>
            <path id="Path_28" data-name="Path 28" class="cls-10" d="M1204.18,1904.9a33.775,33.775,0,1,0,33.776-33.787A33.783,33.783,0,0,0,1204.18,1904.9Zm10.795,21.258a31.3,31.3,0,0,1-6.7-11.285l24.493-6.588-17.789,17.87Zm17.468-24.076-24.386-6.561a31.259,31.259,0,0,1,6.5-11.411l9.6,9.64,8.291,8.329Zm5.513-28.522a31.439,31.439,0,0,1,6.22.623l-6.543,24.515-6.5-24.369A31.354,31.354,0,0,1,1237.956,1873.557Zm5.51,34.167,24.383,6.558a31.257,31.257,0,0,1-6.5,11.409l-17.885-17.969Zm-.324-6.206,17.789-17.871a31.3,31.3,0,0,1,6.7,11.285l-24.49,6.588Zm-5.189,34.728a31.465,31.465,0,0,1-6.223-.622l6.543-24.515,6.5,24.369A31.335,31.335,0,0,1,1237.953,1936.246Z" transform="translate(-1187.875 -1854.796)"/>
            <g id="Group_16" data-name="Group 16" transform="translate(16.305 16.314)">
              <path id="Path_30" data-name="Path 30" class="cls-6" d="M1204.18,1904.883a33.775,33.775,0,1,0,33.773-33.773A33.774,33.774,0,0,0,1204.18,1904.883Zm2.433.02a31.343,31.343,0,1,1,31.343,31.343A31.343,31.343,0,0,1,1206.613,1904.9Z" transform="translate(-1204.18 -1871.11)"/>
            </g>
          </g>
          <g id="Group_19" data-name="Group 19" transform="translate(44.862 44.506)">
            <g id="Group_18" data-name="Group 18" transform="translate(3.145 4.918)">
              <path id="Path_31" data-name="Path 31" class="cls-11" d="M1297.957,1960.53a10.255,10.255,0,0,0-10.257,10.257c0,5.665,4.592,19.343,10.257,19.343s10.257-13.678,10.257-19.343A10.257,10.257,0,0,0,1297.957,1960.53Z" transform="translate(-1287.7 -1960.53)"/>
            </g>
            <circle id="Ellipse_8" data-name="Ellipse 8" class="cls-6" cx="10.257" cy="10.257" r="10.257" transform="translate(0 18.953) rotate(-67.5)"/>
            <circle id="Ellipse_9" data-name="Ellipse 9" cx="10.257" cy="10.257" r="10.257" transform="translate(3.145 6.035)"/>
          </g>
          <path id="Path_32" data-name="Path 32" class="cls-11" d="M1247.329,2036.047c12.963,0,24.24-6.5,30.1-16.1a31.105,31.105,0,0,1-60.2,0C1223.089,2029.546,1234.366,2036.047,1247.329,2036.047Z" transform="translate(-1189.064 -1953.796)"/>
          <path id="Path_34" data-name="Path 34" class="cls-12" d="M1244.153,1885.584a31.2,31.2,0,0,0-31.188,27.925,26.867,26.867,0,0,1-.155-2.709,31.346,31.346,0,0,1,62.686,0,26.841,26.841,0,0,1-.155,2.709,31.2,31.2,0,0,0-31.188-27.925Z" transform="translate(-1185.889 -1853.135)"/>
          <circle id="Ellipse_10" data-name="Ellipse 10" class="cls-6" cx="7.934" cy="7.934" r="7.934" transform="translate(47.047 60.799) rotate(-45)"/>
        </g>
        <path id="Path_35" data-name="Path 35" class="cls-14" d="M753.9,1450.407c-.02-.2-.034-.38-.054-.577-2.019-6.318-3.06-15.153-2.672-26.635.619-18.307,4.789-31.346,10.539-37.906,4.26-38.8,95.68-30.856,106.942-40.08,20.43-16.733,69.275-51.345,85.121-55.363,62.689-15.894,186.345-10.254,220.073-2.5,30.583,7.033,104.687,67.47,108.308,67.47,56.751,0,198.765,18.006,198.765,70.505v11.758l1.115.862c2.387,1.85,4.606,4.136,4.606,7.791,0,0,3.342,34.86-11.949,50.152a34.758,34.758,0,0,1-25.574,10.784h-29.784a6.1,6.1,0,0,1-6.084-6.087v-19.414c0-23.012-18.7-44.132-41.654-45.784a44.986,44.986,0,0,0-48.31,44.864v20.472a5.931,5.931,0,0,1-5.932,5.946H960.719a6.1,6.1,0,0,1-6.084-6.087v-19.414c0-23.012-18.7-44.132-41.654-45.785a44.986,44.986,0,0,0-48.31,44.864v20.331a6.079,6.079,0,0,1-6.065,6.087H784.5a60.9,60.9,0,0,1-19.636-3.252l-1.537-.524a18.3,18.3,0,0,1-11-10.254c-4.812-11.507-8.5-31.693,1.577-42.234Z" transform="translate(-747.505 -1256.474)"/>
        <path id="Path_36" data-name="Path 36" class="cls-14" d="M771.892,1541.253c-2.88-36.49,94.173-29.7,106.272-39.5,20.65-16.733,69.99-49,86.008-53.015,63.368-15.894,188.158-10.255,222.252-2.5,30.915,7.033,105.816,67.47,109.476,67.47,57.362,0,201.023,13.152,201.023,70.505l.045,16.744a32.478,32.478,0,0,1-6.208,9.083,34.758,34.758,0,0,1-25.574,10.784H1435.4a6.1,6.1,0,0,1-6.084-6.088v-19.413c0-23.012-18.7-44.132-41.657-45.785a44.986,44.986,0,0,0-48.31,44.864v20.472a5.933,5.933,0,0,1-5.932,5.947H976.783a6.1,6.1,0,0,1-6.085-6.087V1595.32c0-23.012-18.7-44.132-41.657-45.784a44.986,44.986,0,0,0-48.31,44.864v20.331a6.051,6.051,0,0,1-6.042,6.087H800.56a60.888,60.888,0,0,1-19.636-3.252h0c-6.222-2.12-16.04-24.445-8.072-44.768-2.112-5.806-.957-31.552-.957-31.552Z" transform="translate(-763.57 -1370.627)"/>
        <path id="Path_37" data-name="Path 37" d="M774.59,1682.3c-.349-2.12.248,14.669,25.69,28.446,6.3,3.415-9.4,13.194-16.286,17.161a11.969,11.969,0,0,1-6.543,1.625c-6.774-.329-12.056-1.816-12.239-6.439-1.56-39.613,9.376-40.792,9.376-40.792Z" transform="translate(-760.116 -1545.599)"/>
        <path id="Path_38" data-name="Path 38" class="cls-15" d="M797.925,1393.422a9.536,9.536,0,0,0,13.391,3.95c21.66-12.667,75.244-10.147,84-17.316,20.43-16.733,69.275-51.345,85.121-55.363,62.689-15.894,195.524-10.255,229.252-2.5,30.583,7.034,95.266,58.232,108.308,67.47,56.752,0,198.765,18.006,198.765,70.505,0,0,3.8-2.191,3.829,15.207,3.328-14.641,1.889-29.646,1.889-29.646,0-3.655-2.219-5.941-4.606-7.791l-1.115-.862v-11.758c0-52.5-142.013-70.505-198.764-70.505-3.621,0-77.722-60.437-108.308-67.47-33.728-7.757-157.384-13.4-220.073,2.5-15.846,4.018-64.691,38.63-85.121,55.363-11.972,9.8-114.525.208-106.68,47.972C797.809,1393.18,797.849,1393.267,797.925,1393.422Z" transform="translate(-783.338 -1256.474)"/>
        <path id="Path_39" data-name="Path 39" class="cls-16" d="M3211.62,1866.948c6.721-10.558,12.623-28.257,12.623-28.257h0l1.115.862a11.891,11.891,0,0,1,4.029,4.814c.873,10.922.971,29.679-11.966,31.54-26.168,3.767-43.38-2.258-43.38-2.258s32.5,1.281,37.583-6.7Z" transform="translate(-2490.824 -1658.083)"/>
        <path id="Path_40" data-name="Path 40" class="cls-17" d="M765.211,1729.985c-.971-24.65,2.9-34.415,5.958-38.275.969,3.694,5.927,15.666,27.227,25.884,6.721,3.224-10.015,12.459-17.358,16.2a15.3,15.3,0,0,1-6.974,1.532c-3.942,0-6.786-2.109-8.8-4.891-.017-.149-.045-.3-.051-.453Z" transform="translate(-760.115 -1552.487)"/>
        <path id="Path_41" data-name="Path 41" class="cls-18" d="M785.117,1781.113c-.482-12.169,1.433-16.986,2.948-18.892.479,1.824,2.931,7.731,13.467,12.777,3.325,1.591-4.953,6.149-8.585,8a7.6,7.6,0,0,1-3.449.757,5.281,5.281,0,0,1-4.356-2.416C785.134,1781.265,785.12,1781.191,785.117,1781.113Z" transform="translate(-774.472 -1603.144)"/>
        <path id="Path_42" data-name="Path 42" class="cls-18" d="M805.976,1719.714c-18.983-7.413-27.393-15.748-31.036-21.176a21.308,21.308,0,0,1,3.328-6.828c.969,3.694,5.927,15.666,27.227,25.884,1.371.656,1.754,1.565,1.45,2.627a4.919,4.919,0,0,0-.971-.507Z" transform="translate(-767.215 -1552.487)"/>
        <path id="Path_43" data-name="Path 43" class="cls-16" d="M840.21,1706.745c41.313-12.045,89.728-14.039,120.235-13.467l393.948,12.8c72.533,2.469,125.4,11.446,163.778,25.4-35.347-8.706-79.91-14.346-136-16.255l-401.907-13.073c-29.55-.563-75.576,1.171-116.219,11.637a23.715,23.715,0,0,1-22.376-5.595c-.51-.487-.994-.971-1.458-1.453Z" transform="translate(-814.107 -1553.551)"/>
        <g id="Group_21" data-name="Group 21" transform="translate(6.297 157.076)">
          <path id="Path_44" data-name="Path 44" class="cls-14" d="M1476.7,1846.417a35.783,35.783,0,0,1-11.516,1.819H1435.4a6.1,6.1,0,0,1-6.084-6.088v-19.413c0-23.012-18.7-44.132-41.657-45.785a44.986,44.986,0,0,0-48.31,44.864v20.472a5.931,5.931,0,0,1-5.932,5.947H976.783a6.1,6.1,0,0,1-6.085-6.087v-19.414c0-23.012-18.7-44.132-41.657-45.785a44.986,44.986,0,0,0-48.31,44.864v20.332a6.051,6.051,0,0,1-6.042,6.087H800.56a60.885,60.885,0,0,1-19.636-3.252c-6.222-2.12-16.04-24.445-8.072-44.768-1.242-3.41-1.354-13.7-1.236-21.613,45.43-16.823,101.212-24.155,136.531-23.432l337.413,11.485c172.836,0,218.888,7.357,231.144,79.76Z" transform="translate(-769.866 -1755.117)"/>
        </g>
        <path id="Path_45" data-name="Path 45" class="cls-16" d="M792.284,1910.334s-33.545,0-37.9-17.034a21.118,21.118,0,0,1,4.46-7.29c0,.017,2.306,16.466,33.444,24.321Z" transform="translate(-752.444 -1692.08)"/>
        <path id="Path_46" data-name="Path 46" class="cls-14" d="M770.59,1988.97c1.135,12.526,6.769,22.632,10.854,24.023a60.9,60.9,0,0,0,19.636,3.252h64.928c-.262-1.129-.487-2.272-.7-3.424a69.057,69.057,0,0,1-1.1-12.254c0-.524.025-1.045.037-1.566.011-.492.014-.988.037-1.478h-59.5a75.472,75.472,0,0,1-34.19-8.551Zm676.716,11.6a69.146,69.146,0,0,1-1.8,15.677h20.2a34.143,34.143,0,0,0,19.872-6.017c-8.88-7.757-18.805-12.7-29.8-12.7h-8.548c.042,1.011.073,2.024.073,3.044Zm-458.619,0a69.149,69.149,0,0,1-1.8,15.677h337.74a69.152,69.152,0,0,1-1.8-15.677c0-1.022.028-2.035.073-3.044H988.613c.022.518.025,1.042.037,1.563.011.5.037.986.037,1.484Z" transform="translate(-764.09 -1766.05)"/>
        <g id="Group_22" data-name="Group 22" transform="translate(479.15 59.35)">
          <path id="Path_47" data-name="Path 47" class="cls-19" d="M2504.778,1447.023c56.751,0,198.764,18.006,198.764,70.505v11.758l1.115.861c2.388,1.85,4.606,4.136,4.606,7.791a108.57,108.57,0,0,1,.042,15.97c-.025-.31-.042-.507-.042-.507,0-3.655-2.219-5.941-4.606-7.791l-1.115-.865v-11.758c0-52.5-142.014-70.505-198.764-70.505-2.11,0-28.114-20.483-55.507-38.99V1408.03c27.393,18.507,53.4,38.99,55.507,38.99Z" transform="translate(-2449.271 -1408.03)"/>
        </g>
        <g id="Group_23" data-name="Group 23" transform="translate(121.509 23.214)">
          <path id="Path_48" data-name="Path 48" class="cls-20" d="M1263.827,1289.845c62.689-15.894,186.345-10.254,220.073-2.5,12.777,2.939,33.145,15.2,52.8,28.477v15.464c-19.656-13.278-40.024-25.541-52.8-28.48-33.728-7.757-157.384-13.4-220.073,2.5-15.756,3.995-64.136,38.238-84.766,55.073v-15.463c20.627-16.834,69.007-51.081,84.766-55.076Z" transform="translate(-1179.06 -1279.689)"/>
        </g>
        <g id="Group_24" data-name="Group 24" transform="translate(14.044 88.446)">
          <path id="Path_49" data-name="Path 49" class="cls-21" d="M904.492,1511.657c.113-.093.239-.194.355-.287v15.463c-.115.093-.242.194-.355.287-10.668,8.74-93.3,2.067-105.582,34.333a9.267,9.267,0,0,1-.985-1.582c-.076-.155-.115-.242-.115-.242-7.844-47.764,94.711-38.166,106.68-47.972Z" transform="translate(-797.382 -1511.37)"/>
        </g>
        <g id="Group_25" data-name="Group 25" transform="translate(441.183 36.528)">
          <path id="Path_50" data-name="Path 50" d="M2604.1,1514.665s57.531,13.529,5.214,33.624a12.925,12.925,0,0,1-5.214,1.222h0s-6.549-5.091-16.581-12.484V1502.18C2597.552,1509.574,2604.1,1514.665,2604.1,1514.665Z" transform="translate(-2510.627 -1452.849)"/>
          <path id="Path_51" data-name="Path 51" class="cls-22" d="M2409.186,1390.037c1.683.938,25.785,14.931.935,34.027a1.66,1.66,0,0,1-2.019.008c-12.29-9.387-60.856-45.886-92.011-60.865,3.111-8.807,7.213-18.431.681-34.567,34.775,16.84,89.714,59.322,92.233,61.276A1.245,1.245,0,0,0,2409.186,1390.037Z" transform="translate(-2315.622 -1328.171)"/>
          <path id="Path_52" data-name="Path 52" class="cls-23" d="M2390.361,1375.935a197.278,197.278,0,0,0-54.319-7.45c-3.165,0-6.293.1-9.4.239-3.671-2.039-7.219-3.9-10.558-5.507,3.111-8.807,7.213-18.431.681-34.567,22.668,10.978,53.9,32.847,73.6,47.288Z" transform="translate(-2315.614 -1328.178)"/>
          <path id="Path_53" data-name="Path 53" d="M2407.9,1423.681a2.13,2.13,0,0,0,1.307-.445c7.971-6.127,11.783-12.383,11.324-18.6-.7-9.477-12.935-16.415-13.1-16.209s11.5,7.292,12.157,16.28c.433,5.879-3.255,11.862-10.961,17.783a1.192,1.192,0,0,1-1.448.009c-13.735-10.491-60.8-45.765-91.713-60.73l.341-.957c3.027-8.469,6.456-18.068.194-33.545a.469.469,0,1,0-.87.352c6.13,15.145,2.762,24.566-.206,32.878l-.484,1.357a.47.47,0,0,0,.239.58c30.823,14.818,78.158,50.3,91.929,60.814a2.106,2.106,0,0,0,1.287.433Z" transform="translate(-2314.426 -1326.975)"/>
        </g>
        <g id="Group_26" data-name="Group 26" transform="translate(100.122 168.849)">
          <path id="Path_54" data-name="Path 54" class="cls-24" d="M1165.336,1796.93c34.373,0,62.239,29.4,62.239,65.668a69.146,69.146,0,0,1-1.8,15.677h-5.612a72.864,72.864,0,0,0,1.152-12.8c0-35.279-24.929-63.88-55.678-63.88s-55.679,28.6-55.679,63.88a72.9,72.9,0,0,0,1.152,12.8H1104.9a69.146,69.146,0,0,1-1.8-15.677c0-36.268,27.866-65.668,62.239-65.668Z" transform="translate(-1103.1 -1796.93)"/>
        </g>
        <path id="Path_55" data-name="Path 55" class="cls-25" d="M1390.87,1537.931l156.314,4.629c-4.716-31.56-9.8-50.619-12.377-59.071-29.876-.484-58.753,1.109-79.988,5.874-5.719,1.284-56.96,22.666-62.476,41.353a44.179,44.179,0,0,0-1.472,7.219Zm233.827-47.251a706.443,706.443,0,0,0-74.115-6.752c2.987,10.7,7.6,30.014,11.834,59.083l154.135,4.564a58.06,58.06,0,0,0-13.591-13.743c-24.327-17.494-59.834-40.4-78.259-43.149Z" transform="translate(-1209.724 -1402.832)"/>
        <g id="Group_29" data-name="Group 29" transform="translate(355.432 157.649)">
          <g id="Group_27" data-name="Group 27" transform="translate(0 0)">
            <path id="Path_56" data-name="Path 56" class="cls-26" d="M2009.873,1767.381c-.157,3.711,6.656,7.993,17.648,8.458s22-3.063,22.159-6.774-8.627-7.1-19.619-7.56S2010.031,1763.67,2009.873,1767.381Z" transform="translate(-2009.87 -1760.241)"/>
            <ellipse id="Ellipse_11" data-name="Ellipse 11" class="cls-26" cx="6.369" cy="19.661" rx="6.369" ry="19.661" transform="translate(0.501 12.726) rotate(-87.58)"/>
            <path id="Path_57" data-name="Path 57" class="cls-23" d="M2032.946,1767.5a81.24,81.24,0,0,1-19.327-2.872c1.512-3.018,9.765-5.037,19.644-4.62s17.933,3.128,19.186,6.262a81.5,81.5,0,0,1-19.5,1.23Z" transform="translate(-2012.564 -1759.167)"/>
            <path id="Path_58" data-name="Path 58" class="cls-27" d="M2032.829,1761.423c-9.094-.386-16.874,1.106-19.729,3.508,1.106-3.179,9.592-5.341,19.788-4.911s18.47,3.3,19.3,6.563C2049.551,1763.949,2041.923,1761.806,2032.829,1761.423Z" transform="translate(-2012.191 -1759.174)"/>
          </g>
          <path id="Path_59" data-name="Path 59" class="cls-9" d="M2056.689,1762.069c5.6.237,10.026,3,9.942,6.194l-20.371-.861C2046.443,1764.217,2051.089,1761.832,2056.689,1762.069Z" transform="translate(-2036.014 -1760.673)"/>
          <path id="Path_60" data-name="Path 60" class="cls-6" d="M2066.595,1781.912a.326.326,0,0,1,.006.051c-.135,3.21-4.809,5.62-10.44,5.383s-10.083-3.035-9.948-6.245c0-.017.011-.034.011-.051Z" transform="translate(-2035.978 -1774.322)"/>
          <path id="Path_61" data-name="Path 61" class="cls-11" d="M2034.193,1774.231a174.624,174.624,0,0,0,19.594.355,2.045,2.045,0,0,1,1.954,2.354h0a2.127,2.127,0,0,1-1.869,2.089c-5.955.267-13.335,1.653-22.269.673-4.153-.456-5.9-1.732-9.666-2.247a2.11,2.11,0,0,1-1.644-2.348v-.011a2.061,2.061,0,0,1,2.179-2.064c3.7.5,7.636.907,11.719,1.2Z" transform="translate(-2017.353 -1768.55)"/>
          <g id="Group_28" data-name="Group 28" transform="translate(3.184 4.694)">
            <path id="Path_62" data-name="Path 62" class="cls-26" d="M2034.974,1775a192.123,192.123,0,0,0,19.45.453,1.938,1.938,0,0,1,1.957,2.126h0a1.954,1.954,0,0,1-1.842,1.861,190.941,190.941,0,0,1-19.85-.439c-4.139-.3-8.109-.7-11.857-1.191a1.955,1.955,0,0,1-1.647-2.12v-.008a1.94,1.94,0,0,1,2.148-1.839C2027.014,1774.315,2030.919,1774.709,2034.974,1775Z" transform="translate(-2021.181 -1773.826)"/>
            <path id="Path_63" data-name="Path 63" class="cls-11" d="M2022.527,1782.38c3.863.5,7.957.912,12.223,1.219a202.991,202.991,0,0,0,20.467.481,1.908,1.908,0,0,0,1.185-.481,1.908,1.908,0,0,1-1.754,1.515,191.054,191.054,0,0,1-19.853-.439c-4.139-.3-8.109-.7-11.856-1.191a1.91,1.91,0,0,1-1.608-1.754,1.915,1.915,0,0,0,1.194.65Z" transform="translate(-2021.288 -1779.504)"/>
            <path id="Path_64" data-name="Path 64" class="cls-6" d="M2056.833,1776.754c-6.518.129-13.948-.059-21.844-.625-4.528-.324-8.886-.749-13-1.25a1.891,1.891,0,0,1,1.926-1.039c3.68.473,7.585.867,11.639,1.157a192.106,192.106,0,0,0,19.45.453,1.9,1.9,0,0,1,1.85,1.309c-.009,0-.014,0-.023,0Z" transform="translate(-2021.762 -1773.824)"/>
          </g>
        </g>
        <g id="Group_32" data-name="Group 32" transform="translate(213.827 153.537)">
          <g id="Group_30" data-name="Group 30" transform="translate(0 0)">
            <path id="Path_65" data-name="Path 65" class="cls-26" d="M1506.943,1752.77c-.158,3.711,6.656,7.994,17.648,8.458s22-3.063,22.159-6.774-8.627-7.1-19.619-7.56S1507.1,1749.06,1506.943,1752.77Z" transform="translate(-1506.941 -1745.633)"/>
            <ellipse id="Ellipse_12" data-name="Ellipse 12" class="cls-26" cx="6.369" cy="19.661" rx="6.369" ry="19.661" transform="translate(0.507 12.726) rotate(-87.58)"/>
            <path id="Path_66" data-name="Path 66" class="cls-23" d="M1530.016,1752.894a81.255,81.255,0,0,1-19.326-2.872c1.512-3.018,9.764-5.037,19.644-4.621s17.933,3.128,19.186,6.262a81.517,81.517,0,0,1-19.5,1.23Z" transform="translate(-1509.634 -1744.559)"/>
            <path id="Path_67" data-name="Path 67" class="cls-27" d="M1529.9,1746.813c-9.094-.386-16.874,1.107-19.729,3.508,1.107-3.179,9.593-5.341,19.788-4.91s18.47,3.3,19.3,6.563c-2.641-2.635-10.268-4.778-19.363-5.161Z" transform="translate(-1509.26 -1744.566)"/>
          </g>
          <path id="Path_68" data-name="Path 68" class="cls-9" d="M1553.759,1747.459c5.6.236,10.026,3,9.942,6.194l-20.371-.862C1543.513,1749.607,1548.159,1747.222,1553.759,1747.459Z" transform="translate(-1533.084 -1746.065)"/>
          <path id="Path_69" data-name="Path 69" class="cls-6" d="M1563.665,1767.3a.327.327,0,0,1,.006.051c-.135,3.21-4.809,5.62-10.44,5.383s-10.083-3.035-9.948-6.245c0-.017.011-.034.011-.051Z" transform="translate(-1533.048 -1759.713)"/>
          <path id="Path_70" data-name="Path 70" class="cls-11" d="M1531.263,1759.621a174.567,174.567,0,0,0,19.594.355,2.046,2.046,0,0,1,1.954,2.354h0a2.127,2.127,0,0,1-1.87,2.089c-5.955.267-13.335,1.653-22.268.673-4.153-.456-5.9-1.732-9.666-2.247a2.109,2.109,0,0,1-1.644-2.348v-.011a2.061,2.061,0,0,1,2.179-2.064c3.7.5,7.636.907,11.718,1.2Z" transform="translate(-1514.423 -1753.942)"/>
          <g id="Group_31" data-name="Group 31" transform="translate(3.184 4.692)">
            <path id="Path_71" data-name="Path 71" class="cls-26" d="M1532.044,1760.389a192.086,192.086,0,0,0,19.45.453,1.938,1.938,0,0,1,1.957,2.126h0a1.954,1.954,0,0,1-1.842,1.861,191.013,191.013,0,0,1-19.85-.439c-4.139-.3-8.109-.7-11.856-1.191a1.955,1.955,0,0,1-1.647-2.12v-.009a1.94,1.94,0,0,1,2.148-1.839C1524.084,1759.705,1527.989,1760.1,1532.044,1760.389Z" transform="translate(-1518.25 -1759.216)"/>
            <path id="Path_72" data-name="Path 72" class="cls-11" d="M1519.6,1767.77c3.863.5,7.957.912,12.223,1.219a203.025,203.025,0,0,0,20.466.481,1.911,1.911,0,0,0,1.185-.481,1.909,1.909,0,0,1-1.754,1.515,191.017,191.017,0,0,1-19.853-.439c-4.139-.3-8.109-.7-11.856-1.191a1.91,1.91,0,0,1-1.608-1.754,1.915,1.915,0,0,0,1.194.65Z" transform="translate(-1518.358 -1764.894)"/>
            <path id="Path_73" data-name="Path 73" class="cls-6" d="M1553.9,1762.144c-6.518.13-13.948-.059-21.843-.625-4.527-.324-8.886-.749-13-1.25a1.89,1.89,0,0,1,1.926-1.039c3.68.473,7.585.867,11.64,1.157a192.136,192.136,0,0,0,19.45.453,1.9,1.9,0,0,1,1.85,1.309c-.009,0-.014,0-.023,0Z" transform="translate(-1518.832 -1759.214)"/>
          </g>
        </g>
        <g id="Group_34" data-name="Group 34" transform="translate(227.796 213.744)">
          <path id="Path_74" data-name="Path 74" class="cls-28" d="M1567.4,1956.38h309.238c1.382,0,10.851.724,10.851,1.614s-9.469,2.9-10.851,2.9h-312.36c-1.382,0-7.732-2-7.732-2.9s9.469-1.614,10.851-1.614Z" transform="translate(-1556.55 -1956.38)"/>
          <g id="Group_33" data-name="Group 33" transform="translate(0.003)">
            <path id="Path_75" data-name="Path 75" class="cls-6" d="M1567.411,1956.38h309.237c1.383,0,10.852.724,10.852,1.614s-9.469,1.613-10.852,1.613H1567.411c-1.383,0-10.851-.724-10.851-1.613S1566.029,1956.38,1567.411,1956.38Z" transform="translate(-1556.56 -1956.38)"/>
            <path id="Path_76" data-name="Path 76" class="cls-11" d="M1562.062,1962.24H1882c.687,0,2.979-.115,5.485-.31a.182.182,0,0,1,.017.051c0,.89-9.469,1.613-10.852,1.613H1567.411c-1.383,0-10.851-.721-10.851-1.613a.174.174,0,0,1,.017-.051C1559.085,1962.124,1561.375,1962.24,1562.062,1962.24Z" transform="translate(-1556.56 -1960.367)"/>
          </g>
        </g>
        <g id="Group_36" data-name="Group 36" transform="translate(35.363 213.744)">
          <path id="Path_77" data-name="Path 77" class="cls-28" d="M892.411,1956.38h26.151c2.458,0,19.3.724,19.3,1.614s-16.843,2.9-19.3,2.9h-31.7c-2.458,0-13.749-2-13.749-2.9S889.953,1956.38,892.411,1956.38Z" transform="translate(-873.107 -1956.38)"/>
          <g id="Group_35" data-name="Group 35">
            <path id="Path_78" data-name="Path 78" class="cls-6" d="M892.411,1956.38h26.151c2.458,0,19.3.724,19.3,1.614s-16.843,1.613-19.3,1.613H892.411c-2.458,0-19.3-.724-19.3-1.613S889.953,1956.38,892.411,1956.38Z" transform="translate(-873.107 -1956.38)"/>
            <path id="Path_79" data-name="Path 79" class="cls-11" d="M882.887,1962.24h45.182c1.225,0,5.3-.115,9.756-.31.011.017.028.034.028.051,0,.89-16.843,1.613-19.3,1.613H892.4c-2.458,0-19.3-.721-19.3-1.613,0-.017.017-.033.028-.051,4.46.194,8.534.31,9.756.31Z" transform="translate(-873.1 -1960.367)"/>
          </g>
        </g>
        <g id="Group_38" data-name="Group 38" transform="translate(111.144 46.325)">
          <path id="Path_80" data-name="Path 80" class="cls-25" d="M1213.065,1363.45c-6.313,13.729-5.617,25.155-4.2,31.816-20.086,11.978-46.778,31.206-61.7,43.186-3.607-9.142-4.254-24.589,7.675-33.632,12.96-11.826,37.146-29.268,58.224-41.367Z" transform="translate(-1144.127 -1362.977)"/>
          <g id="Group_37" data-name="Group 37" class="cls-29" transform="translate(23.624 0.473)">
            <path id="Path_81" data-name="Path 81" class="cls-6" d="M1271.464,1363.45c-6.313,13.729-5.617,25.155-4.2,31.816-2.734,1.63-5.594,3.4-8.526,5.265a119.328,119.328,0,0,0-32.593-6.481,410.64,410.64,0,0,1,45.317-30.6Z" transform="translate(-1226.15 -1363.45)"/>
          </g>
          <path id="Path_82" data-name="Path 82" d="M1145.283,1437.713a.467.467,0,0,0,.293-.1c15.007-12.042,41.716-31.259,61.653-43.146a.468.468,0,0,0,.22-.5c-1.5-7-1.943-18.611,4.206-31.982.107-.237-.11-.208-.371-.206-.4,0-.417.037-.527.273-6.158,13.4-5.766,24.625-4.3,31.783-19.72,11.792-45.923,30.62-60.969,42.645-8.055-23.606,8-32.94,7.842-33.148s-1.123.411-1.329.566c-12.952,9.818-10.344,25.447-7.157,33.522a.471.471,0,0,0,.315.281A.425.425,0,0,0,1145.283,1437.713Z" transform="translate(-1142.247 -1361.771)"/>
        </g>
        <g id="Group_39" data-name="Group 39" transform="translate(263.123 186.86)">
          <path id="Path_83" data-name="Path 83" class="cls-30" d="M1766.882,1867.973h-7.073v7.073h7.073Zm28.286,0H1788.1v7.073h7.073Zm-14.143,0h-7.073v7.073h7.073Zm-56.574,0h-7.073v7.073h7.073Zm-14.143,0h-7.073v7.073h7.073Zm28.286,0h-7.073v7.073h7.073Zm-42.431,0h-7.073v7.073h7.073Zm99-7.073v7.073h7.073v7.073h184.1l6.074,2.97h6.862a45.1,45.1,0,0,1,10.888-14.143H2002.7l-5.651-2.97H1795.165Zm-42.431,7.073h-7.073v7.073h7.073Zm-28.285-7.073v7.073h7.073V1860.9Zm-14.143,0v7.073h7.073V1860.9Zm-14.143,0v7.073h7.073V1860.9Zm-14.143,0v7.073h7.073V1860.9Zm99,0v7.073h7.073V1860.9Zm-14.143,0v7.073h7.073V1860.9Zm-28.286,0v7.073h7.073V1860.9Zm14.143,0v7.073h7.073V1860.9Zm324.3,2.97h-8.65a48.554,48.554,0,0,1,11.088,14.143h7.948l5.978-2.97h38.622V1860.9h-49.338Z" transform="translate(-1682.02 -1860.9)"/>
        </g>
        <g id="Group_40" data-name="Group 40" transform="translate(686.05 167.272)">
          <path id="Path_84" data-name="Path 84" d="M3296.444,1791.333s.352,11.054-6.195,16.905a16.059,16.059,0,0,1-15.649,3.263l9.373,20.88-.628,3.173c10.838,1.625,21.3-24.642,13.1-44.225Z" transform="translate(-3249.121 -1791.33)"/>
          <path id="Path_85" data-name="Path 85" d="M3218.857,1865.416c17.612-3.813.724-30.35-20.486-32.214C3160.068,1829.832,3210.056,1867.322,3218.857,1865.416Z" transform="translate(-3184.106 -1821.259)"/>
          <path id="Path_86" data-name="Path 86" class="cls-26" d="M3224.613,1868.829c14.666-2.81.777-25.346-16.936-25.7C3181.2,1842.6,3217.283,1870.231,3224.613,1868.829Z" transform="translate(-3194.166 -1828.541)"/>
          <path id="Path_87" data-name="Path 87" class="cls-26" d="M3269.06,1876.7c-1.391.265-3.987-.687-6.94-2.323V1856.44C3273.148,1861.271,3279.425,1874.713,3269.06,1876.7Z" transform="translate(-3240.155 -1838.108)"/>
          <ellipse id="Ellipse_13" data-name="Ellipse 13" class="cls-31" cx="3.9" cy="9.373" rx="3.9" ry="9.373" transform="translate(18.114 17.955)"/>
        </g>
        <g id="Group_41" data-name="Group 41" transform="translate(558.739 168.849)">
          <path id="Path_88" data-name="Path 88" class="cls-32" d="M2794.179,1796.93c34.373,0,62.239,29.4,62.239,65.668a69.146,69.146,0,0,1-1.8,15.677h-5.912a72.888,72.888,0,0,0,1.151-12.8c0-35.279-24.929-63.88-55.678-63.88s-55.679,28.6-55.679,63.88a72.864,72.864,0,0,0,1.152,12.8h-5.913a69.146,69.146,0,0,1-1.8-15.677C2731.94,1826.331,2759.806,1796.93,2794.179,1796.93Z" transform="translate(-2731.94 -1796.93)"/>
        </g>
        <g id="Group_42" data-name="Group 42" transform="translate(172.932 75.902)">
          <path id="Path_89" data-name="Path 89" d="M1416.153,1620.716c-4.243-45.376-30.884-55.3-48.513-61.867a8.4,8.4,0,0,1-5.465-7.726c-.059-2.438-.147-4.772-.231-7.02-.366-9.682-.681-18.045,1.771-26.551,5.843-20.261,60.063-43.177,65.4-44.4,44.059-10.116,122.428-6.954,177.073,1.4,21.753,3.325,64.381,33.331,81.7,46.077a62.2,62.2,0,0,1,24.943,54.862c-2.241,27.142-6.839,59.494-16.029,59.494h-265.03a15.641,15.641,0,0,1-15.621-14.269Zm13.174-146.651c-5.288,1.214-58.967,23.828-64.708,43.749-2.41,8.359-2.1,16.651-1.735,26.255.085,2.252.175,4.589.234,7.033a7.468,7.468,0,0,0,4.851,6.867c17.848,6.648,44.822,16.7,49.121,62.658a14.706,14.706,0,0,0,14.686,13.419h265.03c6.614,0,11.972-20.824,15.094-58.632a61.26,61.26,0,0,0-24.566-54.029c-17.263-12.7-59.736-42.611-81.283-45.906a721.646,721.646,0,0,0-103.842-7.723c-27.632,0-53.57,1.875-72.882,6.31Z" transform="translate(-1361.695 -1466.817)"/>
          <path id="Path_90" data-name="Path 90" d="M1946.547,1636.2l.938-.039c-4.12-102.1-18.293-153.659-22.539-167.03l-.9.284c4.238,13.343,18.38,64.8,22.5,166.782Z" transform="translate(-1765.713 -1468.479)"/>
        </g>
        <path id="Path_91" data-name="Path 91" class="cls-23" d="M1452.66,1513c23.578-1.9,48.78-2.923,74.979-2.923,20.2,0,39.813.611,58.545,1.76-2.835-13.808-5.392-23.113-6.988-28.348-29.876-.484-58.753,1.109-79.988,5.874C1495.285,1490.24,1469.97,1500.57,1452.66,1513Zm216.427-22.317a706.359,706.359,0,0,0-74.115-6.752c1.8,6.448,4.19,16.046,6.732,29,68.349,5.417,123.076,18.124,148.551,34.331l10.685.315a58.055,58.055,0,0,0-13.591-13.743c-24.327-17.493-59.834-40.4-78.26-43.149Z" transform="translate(-1254.116 -1402.832)"/>
        <g id="Group_49" data-name="Group 49" transform="translate(180.208 79.628)">
          <path id="Path_92" data-name="Path 92" d="M1387.543,1535.408a.939.939,0,0,0,.9,1.053l155.111,4.592h0l17.254.509h.014l153.3,4.539h.028a.94.94,0,0,0,.769-1.481,58.918,58.918,0,0,0-13.81-13.965c-16.663-11.98-57.68-40.182-78.671-43.318a708.673,708.673,0,0,0-74.217-6.76.921.921,0,0,0-.774.355.945.945,0,0,0-.169.833c3.032,10.865,7.5,29.693,11.646,57.858l-13.329-.394c-4.7-31.194-9.725-50.033-12.307-58.483a.871.871,0,0,0-.831-.611c-32.909-.538-60.662,1.5-80.242,5.9-5.817,1.306-57.43,22.547-63.171,42a45.06,45.06,0,0,0-1.5,7.371Zm161.892-52.9a706.057,706.057,0,0,1,72.73,6.69c13.8,2.061,36.631,15.317,55.175,27.421a30.136,30.136,0,0,1,13.563,22.927,3.626,3.626,0,0,1-3.812,3.874l-126.215-3.736h-.037C1556.814,1512.275,1552.481,1493.639,1549.435,1482.509Zm-118.588,53.328-2.94-37.3c11.9-6.04,22.553-10.19,24.718-10.674,19.3-4.328,46.615-6.355,79.082-5.862,2.613,8.689,7.444,27.131,11.983,57.171Zm-24.684-24.372a163.721,163.721,0,0,1,19.934-11.994l2.861,36.31-28.654-.848a3.519,3.519,0,0,1-3.4-3.249,22.771,22.771,0,0,1,9.263-20.216Z" transform="translate(-1387.536 -1480.051)"/>
          <g id="Group_48" data-name="Group 48" transform="translate(254.878 40.79)">
            <g id="Group_43" data-name="Group 43" transform="translate(0 0)">
              <ellipse id="Ellipse_14" data-name="Ellipse 14" class="cls-33" cx="22.269" cy="10.373" rx="22.269" ry="10.373" transform="translate(0 14.368) rotate(-18.82)"/>
            </g>
            <g id="Group_47" data-name="Group 47" transform="translate(21.789 6.952)">
              <path id="Path_93" data-name="Path 93" class="cls-11" d="M2404.182,1649.61l-20.794,29.612a16.771,16.771,0,0,0-3.161,9.477h0c.073,5.139,4.164,6.876,8.359,3.548C2399.624,1683.5,2416.492,1666.228,2404.182,1649.61Z" transform="translate(-2377.392 -1649.61)"/>
              <g id="Group_46" data-name="Group 46">
                <g id="Group_45" data-name="Group 45">
                  <path id="Path_94" data-name="Path 94" class="cls-34" d="M2396.773,1649.61l-23.032,17.4a9.016,9.016,0,0,0-3.581,7.194h0a7.329,7.329,0,0,0,9.018,7.138C2391.294,1678.478,2409.871,1670.538,2396.773,1649.61Z" transform="translate(-2370.16 -1649.61)"/>
                  <path id="Path_95" data-name="Path 95" class="cls-14" d="M2396.773,1649.61l-23.032,17.4a9.016,9.016,0,0,0-3.581,7.194h0a7.329,7.329,0,0,0,9.018,7.138C2391.294,1678.478,2409.871,1670.538,2396.773,1649.61Z" transform="translate(-2370.16 -1649.61)"/>
                  <path id="Path_96" data-name="Path 96" class="cls-26" d="M2377.266,1692.814c10.111-2.3,24.541-7.887,22.773-20.844,6.011,16.271-9.934,22.883-20.746,25.442a7.324,7.324,0,0,1-8.973-6.38,7.786,7.786,0,0,0,6.948,1.785Z" transform="translate(-2370.275 -1665.674)"/>
                  <g id="Group_44" data-name="Group 44">
                    <path id="Path_97" data-name="Path 97" class="cls-35" d="M2396.773,1649.61l-23.032,17.4a9.016,9.016,0,0,0-3.581,7.194h0C2378.5,1674.936,2401.928,1659.476,2396.773,1649.61Z" transform="translate(-2370.16 -1649.61)"/>
                  </g>
                </g>
                <path id="Path_98" data-name="Path 98" class="cls-11" d="M2441.557,1686.668c4.879-3.317,8.267-8.027,7.357-14.7,4.243,11.485-2.455,18.155-10.564,21.984.025-.321.034-.645.029-.969A7.385,7.385,0,0,1,2441.557,1686.668Z" transform="translate(-2419.15 -1665.674)"/>
              </g>
            </g>
          </g>
        </g>
        <path id="Path_99" data-name="Path 99" d="M1367.007,1520.208c5.741-19.92,59.42-42.535,64.708-43.749,19.309-4.435,45.247-6.31,72.879-6.31,5.907,0,11.893.093,17.907.256,4.322,13.692,18.276,64.992,22.392,166.033H1434.159a14.708,14.708,0,0,1-14.686-13.419c-4.3-45.962-31.27-56.01-49.121-62.658a7.467,7.467,0,0,1-4.854-6.867c-.059-2.444-.146-4.781-.231-7.033-.363-9.6-.676-17.9,1.734-26.256Z" transform="translate(-1191.151 -1393.309)"/>
        <g id="Group_50" data-name="Group 50" transform="translate(201.349 177.611)">
          <path id="Path_100" data-name="Path 100" class="cls-36" d="M1615.017,1893.572H1504.282a14.708,14.708,0,0,1-14.686-13.419c-2.692-28.809-14.295-43.5-26.976-52.1H1610.5C1612.4,1847.024,1614.006,1868.792,1615.017,1893.572Z" transform="translate(-1462.62 -1828.05)"/>
          <path id="Path_101" data-name="Path 101" d="M1556.132,1838.918a106.013,106.013,0,0,1-10.463,54.654h-41.386a14.708,14.708,0,0,1-14.686-13.419c-2.692-28.809-14.295-43.5-26.976-52.1H1544.2A11.916,11.916,0,0,1,1556.132,1838.918Z" transform="translate(-1462.62 -1828.05)"/>
        </g>
        <g id="Group_54" data-name="Group 54" transform="translate(194.126)">
          <g id="Group_53" data-name="Group 53" transform="translate(31.304)">
            <path id="Path_102" data-name="Path 102" class="cls-3" d="M1548.15,1324v-8.987a9.632,9.632,0,0,1,9.632-9.632h157.1a9.632,9.632,0,0,1,9.632,9.632v6.707c-44.18-4.742-122.887-6.543-176.358,2.283Z" transform="translate(-1548.15 -1274.932)"/>
            <path id="Path_103" data-name="Path 103" class="cls-9" d="M1725.057,1313.032h-165.47a3.061,3.061,0,0,1-2.061-5.338,9.585,9.585,0,0,1,6.248-2.3h157.1a9.586,9.586,0,0,1,6.248,2.3A3.061,3.061,0,0,1,1725.057,1313.032Z" transform="translate(-1554.141 -1274.939)"/>
            <path id="Path_104" data-name="Path 104" class="cls-14" d="M1577.212,1233h156.927c1.656,0,2.675-2.177,1.819-3.88l-9.908-19.709c-3.79-7.54-10.581-12.146-17.9-12.146H1603.2c-7.324,0-14.115,4.606-17.9,12.146l-9.908,19.709c-.856,1.7.163,3.88,1.819,3.88Z" transform="translate(-1567.498 -1197.254)"/>
            <path id="Path_105" data-name="Path 105" class="cls-15" d="M1726.078,1213.962c-3.79-6.983-10.581-11.248-17.9-11.248H1603.231c-7.323,0-14.115,4.266-17.9,11.248l-9.767,17.995a2.947,2.947,0,0,1-.138-2.858l9.908-19.709c3.79-7.54,10.581-12.149,17.9-12.149h104.943c7.323,0,14.115,4.606,17.9,12.149l9.908,19.709a2.946,2.946,0,0,1-.141,2.858l-9.767-17.995Z" transform="translate(-1567.523 -1197.24)"/>
            <g id="Group_52" data-name="Group 52" transform="translate(61.822 7.661)">
              <ellipse id="Ellipse_15" data-name="Ellipse 15" cx="30.546" cy="13.135" rx="30.546" ry="13.135"/>
              <g id="Group_51" data-name="Group 51" transform="translate(6.772 7.332)">
                <path id="Path_106" data-name="Path 106" class="cls-14" d="M1797.362,1262.218h-2.453v-9.52h-3.139v-2.039h8.728v2.039h-3.139v9.52Z" transform="translate(-1791.77 -1250.612)"/>
                <path id="Path_107" data-name="Path 107" class="cls-14" d="M1847.394,1262.1l-.839-2.751h-4.215l-.839,2.751h-2.641l4.08-11.606h3l4.094,11.606h-2.641Zm-1.422-4.806q-1.161-3.738-1.309-4.229c-.1-.326-.166-.585-.208-.774q-.262,1.014-1.495,5Z" transform="translate(-1825.601 -1250.49)"/>
                <path id="Path_108" data-name="Path 108" class="cls-14" d="M1904.281,1262.218h-2.8l-2.689-4.373-2.689,4.373h-2.624l3.835-5.961-3.59-5.6h2.7l2.489,4.159,2.444-4.159H1904l-3.629,5.733,3.905,5.825Z" transform="translate(-1864.843 -1250.612)"/>
                <path id="Path_109" data-name="Path 109" class="cls-14" d="M1951.94,1262.218V1250.66h2.449v11.558Z" transform="translate(-1906.843 -1250.612)"/>
              </g>
            </g>
          </g>
          <path id="Path_110" data-name="Path 110" class="cls-26" d="M1644.631,1340.458s-17.156,10.418-36.766,10.252c-5.02-.042-97.724-6.527-168.024,8.2-15.765,3.3,38.5-25.968,38.5-25.968S1634.5,1326.523,1644.631,1340.458Z" transform="translate(-1436.968 -1293.674)"/>
        </g>
        <path id="Path_111" data-name="Path 111" class="cls-25" d="M1549.22,1482.5a121.841,121.841,0,0,1,14.833-6.042c19.309-4.435,45.247-6.31,72.879-6.31,3.235,0,7.591,10.378,10.556,21.283l-97.068-.957-1.2-7.971Z" transform="translate(-1323.488 -1393.309)"/>
        <g id="Group_55" data-name="Group 55" transform="translate(237.19 118.816)">
          <path id="Path_112" data-name="Path 112" class="cls-37" d="M1678.266,1619.23V1631.6c0,4.556-4.674,24.462-36.352,24.462l-50.45-7.5-1.194-15.9,31.819.659,33.832-3.415,22.347-10.68Z" transform="translate(-1590.17 -1619.23)"/>
          <path id="Path_113" data-name="Path 113" class="cls-38" d="M1590.015,1632.683c10.477-.383,20.089-1.084,28.8-1.968.524,1,1.233,1.906,2.081,1.906,1.886,0,31.954-3.35,33.3-4.116.785-.448.974-2.036,1-3.28a188.921,188.921,0,0,0,22.823-5.975c-1.932,9.894-33.393,12.994-40.787,14.1s-43.259,1.771-45.5,1.4c-1.642-.27-2.021-2.047-1.709-2.058Z" transform="translate(-1589.915 -1619.244)"/>
        </g>
        <path id="Path_114" data-name="Path 114" class="cls-39" d="M1652.262,1569.3l-98.352-4.288s5.488,5.634,49.571,9.534C1637.4,1577.542,1657.321,1579.564,1652.262,1569.3Z" transform="translate(-1326.858 -1461.461)"/>
        <g id="Group_57" data-name="Group 57" transform="translate(190.389 96.085)">
          <path id="Path_115" data-name="Path 115" class="cls-40" d="M1444.937,1538.5c-1.138,27.548,18.817,26.5,28.544,55.219v.006a126.669,126.669,0,0,1,31.631-4.288c18.991.014,15.624,49.935,15.624,49.935-2.123,24.555-19.34,28.7-29.15,28.7h-16.026c-27.438-57.987-50.4-48.5-51.779-80.808-1.445-33.81,21.162-48.76,21.162-48.76Z" transform="translate(-1423.708 -1538.5)"/>
          <g id="Group_56" data-name="Group 56">
            <path id="Path_116" data-name="Path 116" class="cls-2" d="M1445.462,1538.68c-.955,8.464-.735,20.627,6.808,27.027,8.3,7.044,21.59,29.212,21.59,29.212s26.669-6.974,33.3-4.19c12.9,5.415,8.154,46.427,2.238,55.248s-33.365,4.57-33.365,4.57,7.14-11.938-26.289-33.922c-17.017-17.462-13.965-32.835-25.194-38.089,2.264-26.579,19.65-38.99,20.909-39.855Z" transform="translate(-1424.309 -1538.629)"/>
            <path id="Path_117" data-name="Path 117" class="cls-11" d="M1444.923,1538.5c-.065,1.588-.053,3.072.014,4.48-9.655,7.807-17.071,18.96-17.071,32.8s5.074,21.773,18.4,39.382a47.472,47.472,0,0,0,7.073,7.467c13.535,11.533,22.516,21.556,20.869,28.105a26.172,26.172,0,0,1,9.331,6.152c5.324,5.58-1.757,7.323,2.663,11.178H1475.54c-27.438-57.987-50.4-48.5-51.779-80.808C1422.316,1553.451,1444.923,1538.5,1444.923,1538.5Z" transform="translate(-1423.694 -1538.5)"/>
            <path id="Path_118" data-name="Path 118" class="cls-11" d="M1444.923,1538.5c-.433,10.508,2.2,16.854,6.172,22.28-3.041,6.563-18.856,2.1-27.334,26.481-1.444-33.81,21.162-48.76,21.162-48.76Z" transform="translate(-1423.694 -1538.5)"/>
            <path id="Path_119" data-name="Path 119" class="cls-26" d="M1573.529,1726.064s26.669-6.974,33.3-4.189c5.716,2.4,7.963,11.792,8.182,22.274-16.17-5.093-36.3-4.389-51.731,3.342C1564.508,1731.442,1573.529,1726.064,1573.529,1726.064Z" transform="translate(-1523.979 -1669.772)"/>
            <path id="Path_120" data-name="Path 120" class="cls-26" d="M1560.41,1757.639c.383.329.763.659,1.126.983-3.125-24.707,9.931-32.4,9.931-32.4s16.19-4.235,26.478-4.787c-16.085,8.661-26.478,19.349-27.866,46.489a58.181,58.181,0,0,0-9.669-10.283Z" transform="translate(-1521.916 -1669.924)"/>
            <path id="Path_121" data-name="Path 121" class="cls-23" d="M1670.881,1906.27s-3.5,7.625-5.913,9.393c-5.761,4.221-21.981,2.435-22.429,2.993s1.506,7.943,10.879,8.39S1674.229,1918.991,1670.881,1906.27Z" transform="translate(-1580.879 -1802.721)"/>
            <path id="Path_122" data-name="Path 122" class="cls-28" d="M1436.946,1568.09c9.658,31.51,14.771,18.24,32.788,51.925-3.52,4.491-7.72,13.236-5.8,28.44a121.387,121.387,0,0,0-14.182-10.7c-17.017-17.462-13.965-32.835-25.194-38.089A57.323,57.323,0,0,1,1436.946,1568.09Z" transform="translate(-1424.316 -1559.759)"/>
            <path id="Path_123" data-name="Path 123" class="cls-26" d="M1472.014,1692.375c1.16,1.855,1.853,3.01,1.853,3.01s-13.056,7.7-9.931,32.4a121.389,121.389,0,0,0-14.182-10.7c-17.017-17.462-13.965-32.836-25.194-38.09,9.748-4.313,23.006,21.771,47.454,13.377Z" transform="translate(-1424.316 -1639.093)"/>
          </g>
        </g>
        <path id="Path_124" data-name="Path 124" class="cls-41" d="M1365.3,1546.471c.084,2.252.175,4.589.231,7.033a7.467,7.467,0,0,0,4.854,6.867c17.848,6.647,44.821,16.7,49.121,62.658a14.708,14.708,0,0,0,14.686,13.419h110.735c-4.116-101.044-18.071-152.341-22.393-166.033-6.014-.163-12-.256-17.907-.256-27.632,0-53.57,1.875-72.879,6.31-5.288,1.214-58.967,23.828-64.708,43.749-2.41,8.36-2.1,16.651-1.734,26.255Zm11.778-25.259c0-19.419,53.758-39.765,58.542-40.9,17.471-4.147,40.936-5.9,65.933-5.9q2.9,0,5.823.034a13.8,13.8,0,0,1,13.2,10.48c5.3,21.12,14.374,67.338,17.434,144.95h-81.134c-9.246,0-17.7-5.409-22.131-14.008-28.919-56.076-57.669-80.887-57.669-94.658Z" transform="translate(-1191.18 -1393.317)"/>
        <path id="Path_125" data-name="Path 125" class="cls-12" d="M1367.021,1520.216c-2.41,8.36-2.1,16.652-1.734,26.256.084,2.252.174,4.589.231,7.033a7.467,7.467,0,0,0,4.854,6.867c17.848,6.647,44.822,16.7,49.121,62.658a14.708,14.708,0,0,0,14.686,13.419h110.735c-4.116-101.044-18.071-152.341-22.393-166.033-6.014-.163-12-.256-17.907-.256-27.632,0-53.57,1.875-72.879,6.31-5.288,1.214-58.967,23.828-64.708,43.749Zm1.8.521c5.426-18.825,58.342-41.293,63.323-42.44,17.84-4.1,42.9-6.262,72.459-6.262,5.217,0,10.767.073,16.513.222,4.581,14.976,17.736,65.513,21.829,162.314H1434.176a12.839,12.839,0,0,1-12.817-11.716c-4.406-47.136-32.044-57.433-50.335-64.244a5.6,5.6,0,0,1-3.629-5.153c-.059-2.453-.147-4.8-.234-7.059v-.008c-.355-9.438-.665-17.586,1.664-25.656Z" transform="translate(-1191.165 -1393.317)"/>
        <path id="Path_126" data-name="Path 126" class="cls-42" d="M1402.99,1549.5c0-19.763,53.339-40.466,58.086-41.62.1-.022.2-.045.3-.07-9.942,3.283-57.047,22.271-57.047,40.452,0,13.771,28.75,38.582,57.669,94.658,4.435,8.6,12.887,14.008,22.13,14.008h78.409c.042,1.053.09,2.089.13,3.153h-80.5c-9.173,0-17.558-5.5-21.959-14.253-28.691-57.061-57.219-82.308-57.219-96.325Z" transform="translate(-1218.431 -1420.366)"/>
        <path id="Path_127" data-name="Path 127" class="cls-2" d="M1520.562,1484.911a13.806,13.806,0,0,0-13.2-10.48q-2.923-.034-5.823-.034c-25,0-48.465,1.754-65.933,5.9-4.783,1.135-58.542,21.48-58.542,40.9,0,4.953,3.734,11.35,9.843,20.1q-10.9,6.018-21.328,12.8c-.02-.2-.056-.4-.059-.605-.059-2.444-.146-4.781-.231-7.033-.364-9.6-.676-17.9,1.734-26.256,5.741-19.92,59.42-42.535,64.708-43.749,19.309-4.434,45.247-6.31,72.879-6.31,5.907,0,11.893.093,17.907.256,1.484,4.7,4.108,13.85,7.076,27.928-1.951.158-3.9.338-5.845.526-1.146-5.488-2.227-10.133-3.187-13.948Z" transform="translate(-1191.165 -1393.302)"/>
        <g id="Group_77" data-name="Group 77" transform="translate(293.816 88.444)">
          <g id="Group_58" data-name="Group 58" transform="translate(0 86.647)">
            <path id="Path_128" data-name="Path 128" class="cls-39" d="M1805.734,1819.1s-16.412,22.153-14.557,36.738c2.151,16.919,13.867,48.831,18.746,50.329a25.494,25.494,0,0,0,9.2,1.031s12.279-40.162,12.023-49.983-25.414-38.112-25.414-38.112Z" transform="translate(-1791.031 -1819.1)"/>
            <path id="Path_129" data-name="Path 129" class="cls-11" d="M1846.146,1857.212c.256,9.824-12.023,49.983-12.023,49.983a25.549,25.549,0,0,1-6.707-.422c-5.3-9.953-13.627-40.975-15.37-58.666-.6-6.121.825-13.326,2.962-20.162,3.061-5.248,5.724-8.844,5.724-8.844S1845.889,1847.391,1846.146,1857.212Z" transform="translate(-1806.029 -1819.1)"/>
          </g>
          <g id="Group_59" data-name="Group 59" transform="translate(8.116 71.066)">
            <path id="Path_130" data-name="Path 130" class="cls-43" d="M1839.021,1763.76s-23.448,19.067-18.47,42.561c4.9,23.13,10.9,63.779,15.784,66.316s11.595,2.765,11.595,2.765,12.279-68,12.023-84.634-20.928-27.007-20.928-27.007Z" transform="translate(-1819.857 -1763.76)"/>
            <path id="Path_131" data-name="Path 131" class="cls-11" d="M1839.425,1763.76s20.672,10.373,20.928,27.007c.24,15.452-10.339,75.21-11.839,83.618l-.6,1a37.661,37.661,0,0,1-4.2-.521c.366-15.145-1-47.04-17.831-59.361-3.018-2.21-4.694-9.446-5.471-18.876,1.763-18.822,19.005-32.858,19.005-32.858Z" transform="translate(-1820.261 -1763.76)"/>
          </g>
          <path id="Path_132" data-name="Path 132" d="M1847.095,1517.512c.96-1.151,3.618-2.066,4.128-.724,4.685,12.341,20.6,58.669,20.6,82.993a468.879,468.879,0,0,1-5.479,71.5l-16.9,29.62c-.785,1.27-2.762-1.951-2.708-3.387.543-14.078-.014-47.634-18.175-60.558-10.407-7.405-5.479-71.924-1.6-86.588,3.03-11.451,15.03-26.714,20.146-32.855Z" transform="translate(-1813.513 -1514.781)"/>
          <path id="Path_133" data-name="Path 133" class="cls-44" d="M1858.616,1511.363s25.245,56.641,25.245,84.995a297.818,297.818,0,0,1-8.8,71.5l-18.377,30.589c-.237.391-.935.245-.9-.2.645-9.522,2.255-51.131-17.55-65.629-10.116-7.405-5.229-71.012-1.458-85.679s21.846-35.584,21.846-35.584Z" transform="translate(-1820.619 -1511.36)"/>
          <path id="Path_134" data-name="Path 134" class="cls-22" d="M1869.232,1539.26a451.46,451.46,0,0,1,16.891,47.1l-39.785,51.872c-2.433-22.933.009-55.847,3.173-67.321C1852.037,1561.762,1862.4,1547.853,1869.232,1539.26Z" transform="translate(-1830.055 -1531.405)"/>
          <path id="Path_135" data-name="Path 135" class="cls-23" d="M1846.48,1603.368c.634-13.774,2.129-26.25,3.84-32.453,2.526-9.153,12.887-23.063,19.72-31.656,2.545,6.068,6.611,16.147,10.6,27.506C1864.393,1574.646,1854.009,1588.021,1846.48,1603.368Z" transform="translate(-1830.868 -1531.404)"/>
          <path id="Path_136" data-name="Path 136" class="cls-2" d="M1916.219,2064.556l21.086-29.316c-1.225,5.73-2.125,9-2.125,9l-18.378,30.589c-.236.392-.935.245-.9-.2.141-2.056.318-5.626.321-10.074Z" transform="translate(-1880.739 -1887.737)"/>
          <g id="Group_60" data-name="Group 60" transform="translate(14.378 6.914)">
            <path id="Path_137" data-name="Path 137" d="M1860.4,1742.978l1.03-.085c-3.539-24.521-10.581-37.633-10.651-37.763l-.96.293C1849.891,1705.553,1856.876,1718.577,1860.4,1742.978Z" transform="translate(-1847.646 -1657.486)"/>
            <path id="Path_138" data-name="Path 138" d="M1846.221,1818.15l3.646,15.905-3.486,4.547-.971-17.887Z" transform="translate(-1844.477 -1738.684)"/>
            <path id="Path_139" data-name="Path 139" d="M1843.748,1636.735a.928.928,0,0,1-.65-.8c-2.379-22.437-.194-55.372,3.2-67.681,1.957-7.092,8.65-17.856,19.892-31.994a.884.884,0,0,1,.828-.335.913.913,0,0,1,.707.557,449.349,449.349,0,0,1,16.93,47.212.959.959,0,0,1-.161.85l-39.784,51.872a.9.9,0,0,1-.712.355A.849.849,0,0,1,1843.748,1636.735Zm22.9-98.09c-10.373,13.177-16.8,23.575-18.605,30.124-2.883,10.452-5.442,41.567-3.367,64.666l38.1-49.678a454.186,454.186,0,0,0-16.131-45.112Z" transform="translate(-1842.098 -1535.915)"/>
          </g>
          <path id="Path_140" data-name="Path 140" class="cls-16" d="M1888.886,1724.84c.833,3.3,1.565,6.535,2.162,9.658l-41.068,53.955a27.351,27.351,0,0,0-2.872-2.455,8.636,8.636,0,0,1-2.528-3.649l44.3-57.506Z" transform="translate(-1829.503 -1664.733)"/>
          <path id="Path_141" data-name="Path 141" class="cls-14" d="M1884.36,1854.087l36.907-48.417c.028.721.056,1.442.056,2.132a297.826,297.826,0,0,1-8.8,71.5l-18.377,30.589c-.236.391-.935.245-.9-.2.529-7.825,1.7-37.3-8.88-55.611Z" transform="translate(-1858.082 -1722.804)"/>
          <g id="Group_74" data-name="Group 74" transform="translate(46.832 98.76)">
            <g id="Group_61" data-name="Group 61" transform="translate(13.185 10.832)">
              <path id="Path_142" data-name="Path 142" class="cls-45" d="M2005.482,1908.668l-1.188,1.827-.1-8.078,1.191-1.827Z" transform="translate(-2004.19 -1900.59)"/>
            </g>
            <g id="Group_62" data-name="Group 62" transform="translate(8.43 18.141)">
              <path id="Path_143" data-name="Path 143" class="cls-46" d="M1988.593,1934.628l-1.191,1.827-.1-8.078,1.188-1.827Z" transform="translate(-1987.3 -1926.55)"/>
            </g>
            <g id="Group_63" data-name="Group 63" transform="translate(10.806 14.486)">
              <path id="Path_144" data-name="Path 144" class="cls-47" d="M1997.032,1921.648l-1.188,1.827-.1-8.078,1.191-1.828Z" transform="translate(-1995.74 -1913.57)"/>
            </g>
            <g id="Group_64" data-name="Group 64" transform="translate(1.292 29.105)">
              <path id="Path_145" data-name="Path 145" class="cls-48" d="M1963.242,1973.565l-1.188,1.827-.1-8.075,1.191-1.827Z" transform="translate(-1961.95 -1965.49)"/>
            </g>
            <g id="Group_65" data-name="Group 65" transform="translate(6.051 21.796)">
              <path id="Path_146" data-name="Path 146" class="cls-49" d="M1980.142,1947.608l-1.191,1.827-.1-8.078,1.188-1.827Z" transform="translate(-1978.85 -1939.53)"/>
            </g>
            <g id="Group_66" data-name="Group 66" transform="translate(3.672 25.45)">
              <path id="Path_147" data-name="Path 147" class="cls-50" d="M1971.692,1960.588l-1.188,1.827-.1-8.078,1.191-1.827Z" transform="translate(-1970.4 -1952.51)"/>
            </g>
            <g id="Group_67" data-name="Group 67" transform="translate(7.138 11.89)">
              <path id="Path_148" data-name="Path 148" class="cls-51" d="M1983.9,1904.35l.1,8.078-1.191,1.827-.1-8.078Z" transform="translate(-1982.71 -1904.35)"/>
            </g>
            <g id="Group_68" data-name="Group 68" transform="translate(2.379 19.2)">
              <path id="Path_149" data-name="Path 149" class="cls-52" d="M1967,1930.31l.1,8.078-1.188,1.827-.1-8.078Z" transform="translate(-1965.81 -1930.31)"/>
            </g>
            <g id="Group_69" data-name="Group 69" transform="translate(4.758 15.545)">
              <path id="Path_150" data-name="Path 150" class="cls-53" d="M1975.448,1917.33l.1,8.078-1.188,1.827-.1-8.078Z" transform="translate(-1974.26 -1917.33)"/>
            </g>
            <g id="Group_70" data-name="Group 70" transform="translate(0 22.854)">
              <path id="Path_151" data-name="Path 151" class="cls-54" d="M1958.551,1943.29l.1,8.078-1.188,1.824-.1-8.075Z" transform="translate(-1957.36 -1943.29)"/>
            </g>
            <g id="Group_71" data-name="Group 71" transform="translate(9.517 8.238)">
              <path id="Path_152" data-name="Path 152" class="cls-55" d="M1992.348,1891.38l.1,8.075-1.188,1.827-.1-8.078Z" transform="translate(-1991.16 -1891.38)"/>
            </g>
            <g id="Group_72" data-name="Group 72" transform="translate(11.893 4.584)">
              <path id="Path_153" data-name="Path 153" class="cls-56" d="M2000.791,1878.4l.1,8.075-1.188,1.827-.1-8.075Z" transform="translate(-1999.6 -1878.4)"/>
            </g>
            <g id="Group_73" data-name="Group 73" transform="translate(14.272)">
              <path id="Path_154" data-name="Path 154" class="cls-57" d="M2009.844,1862.12l-.636,9.21-1.053,1.622-.1-8.075Z" transform="translate(-2008.05 -1862.12)"/>
            </g>
          </g>
          <g id="Group_75" data-name="Group 75" transform="translate(35.389 124.962)">
            <path id="Path_155" data-name="Path 155" class="cls-6" d="M1941.8,1955.18c2.435,1.078,2.089,3.413.456,6.372l-22.713,30.417c-.864,1.157-2.813.268-2.813.248-.11-1.081,1.385-4.924,2.022-5.786l23.046-31.25Z" transform="translate(-1916.72 -1955.18)"/>
            <path id="Path_156" data-name="Path 156" class="cls-11" d="M1918.931,1998.236l24.6-32.945a9.229,9.229,0,0,1-1.261,3.525l-22.711,30.417c-.865,1.157-2.813.268-2.813.248a2.306,2.306,0,0,1,.034-.546,2.183,2.183,0,0,0,2.154-.7Z" transform="translate(-1916.735 -1962.443)"/>
          </g>
          <g id="Group_76" data-name="Group 76" transform="translate(30.229 99.438)">
            <path id="Path_157" data-name="Path 157" class="cls-26" d="M1906.046,1895.106c.817,5.153,4.344,7.352,8.078,3.246,4.083-4.485,7.14-12.287,7.287-19.476.107-5.2-5.327-5.679-9.354-1.157S1905.227,1889.954,1906.046,1895.106Z" transform="translate(-1903.789 -1871.784)"/>
            <path id="Path_158" data-name="Path 158" d="M1907.541,1892.788c.774,4.879,4.933,5.282,9.035.957,4.133-4.356,6.132-12.239,5.358-17.119s-4.623-5.217-8.6-.757-6.569,12.036-5.794,16.916Z" transform="translate(-1904.867 -1870.424)"/>
            <ellipse id="Ellipse_16" data-name="Ellipse 16" class="cls-26" cx="12.752" cy="5.876" rx="12.752" ry="5.876" transform="translate(0 23.509) rotate(-67.19)"/>
            <path id="Path_159" data-name="Path 159" class="cls-10" d="M1916.654,1885.223c-2.816,3.159-5.516,4.9-7.565,5.138-.172-4.84,2.295-11.476,5.915-15.539s7.126-4.133,8.312-.431A38.069,38.069,0,0,1,1916.654,1885.223Z" transform="translate(-1906.071 -1869.675)"/>
            <path id="Path_160" data-name="Path 160" class="cls-58" d="M1928.614,1878.456c2.053-2.3,4.283-.591,5,3.812a.516.516,0,0,1,.014.068c.707,4.457-.391,9.95-2.455,12.265s-4.308.58-5.015-3.88a.653.653,0,0,0-.009-.073C1925.467,1886.2,1926.562,1880.759,1928.614,1878.456Z" transform="translate(-1918.189 -1873.798)"/>
            <path id="Path_161" data-name="Path 161" class="cls-12" d="M1915.483,1895.78c.473-.572,5.082-1.405,7.18-8.238.163-.535,2.069,4.679,1.729,5.2-2.058,3.159-2.1,6.549-7.78,11.369-1.574,1.338-2.509.394-3.973,1.458-.394.287-.893-.8-1.138-2.444v-.014c-.27-1.785-.138-3.533.29-3.846a18.127,18.127,0,0,0,3.694-3.489Z" transform="translate(-1907.71 -1881.035)"/>
            <path id="Path_162" data-name="Path 162" class="cls-2" d="M1916.182,1892.669c2.565.281,8.083-2.8,7.18-8.239q.448-.625.876-1.25a3.992,3.992,0,0,1,1.647.327c.766,11.417-10.221,17.048-12.352,17.724-.487.155-.865-.65-1.087-2.129v-.014c-.242-1.6-.07-3.184.332-3.522a38.458,38.458,0,0,0,3.4-2.894Z" transform="translate(-1908.41 -1877.923)"/>
            <path id="Path_163" data-name="Path 163" class="cls-6" d="M1917.29,1892.669c2.565.281,8.083-2.8,7.18-8.239q.448-.625.876-1.25a3.992,3.992,0,0,1,1.647.327c-.763,11.268-13.509,12.4-13.107,12.056A38.4,38.4,0,0,0,1917.29,1892.669Z" transform="translate(-1909.517 -1877.923)"/>
            <path id="Path_164" data-name="Path 164" class="cls-13" d="M1913.44,1908.041c.223.828.521,1.247.884,1.132,1.951-.617,11.282-5.4,12.279-14.942C1924.787,1902.8,1915.864,1907.23,1913.44,1908.041Z" transform="translate(-1909.204 -1885.867)"/>
          </g>
        </g>
      </g>
    </g>
  </g>
</svg>
