<svg xmlns="http://www.w3.org/2000/svg" width="35" height="35" viewBox="0 0 35 35">
  <defs>
    <style>
      .cls-1 {
        fill: #383838;
      }
    </style>
  </defs>
  <path id="icons8-telegram" class="cls-1" d="M19.5,2A17.5,17.5,0,1,1,2,19.5,17.5,17.5,0,0,1,19.5,2Zm6.037,24.633c.322-.988,1.83-10.83,2.016-12.77a1.044,1.044,0,0,0-.493-1.152,2.562,2.562,0,0,0-1.847.167c-1.036.374-14.285,6-15.05,6.324-.726.308-1.412.644-1.412,1.131,0,.342.2.535.763.735.583.208,2.051.653,2.917.892a3.153,3.153,0,0,0,2.318-.3c.565-.351,7.08-4.711,7.548-5.092s.84.107.458.49S17.9,21.78,17.311,22.381a1.1,1.1,0,0,0,.272,1.789c.549.345,4.494,2.992,5.088,3.416a3.025,3.025,0,0,0,1.748.617C24.971,28.2,25.262,27.477,25.537,26.633Z" transform="translate(-2 -2)"/>
</svg>
