<svg xmlns="http://www.w3.org/2000/svg" width="31.955" height="35" viewBox="0 0 31.955 35">
  <defs>
    <style>
      .cls-1 {
        fill: #383838;
      }
    </style>
  </defs>
  <path id="icons8-viber" class="cls-1" d="M35.027,10.726a8.721,8.721,0,0,0-3.493-4.984A15.919,15.919,0,0,0,24.7,3.389a30.506,30.506,0,0,0-8.28-.193,19.3,19.3,0,0,0-5.9,1.534,9.538,9.538,0,0,0-5.811,7.2c-.29,1.592-.485,3.032-.6,4.4a23.637,23.637,0,0,0,.724,8.586,9.167,9.167,0,0,0,3.9,5.542,8.8,8.8,0,0,0,1.7.735c.339.12.669.237.94.362.25.116.25.138.247.346-.021,1.8,0,5.34,0,5.34l0,.755H12.97l.221-.213c.143-.138,3.5-3.384,4.7-4.69l.163-.183c.206-.236.206-.236.418-.24,1.616-.032,3.268-.094,4.909-.183a19.32,19.32,0,0,0,6.462-1.206,8.083,8.083,0,0,0,4.306-3.911,16.954,16.954,0,0,0,1.65-6.1A29.11,29.11,0,0,0,35.027,10.726ZM27.877,26.19a4.393,4.393,0,0,1-2.12,1.743,2.412,2.412,0,0,1-1.926-.056,24.019,24.019,0,0,1-12.206-10.86,33.12,33.12,0,0,1-1.411-3.293,3.437,3.437,0,0,1-.127-.743,3.283,3.283,0,0,1,2.795-3.1,1.488,1.488,0,0,1,1.391.445,12.232,12.232,0,0,1,2.593,3.588,1.224,1.224,0,0,1-.327,1.555c-.1.091-.2.177-.313.258a1.81,1.81,0,0,0-.676,2.7,8.743,8.743,0,0,0,4.8,4.425,1.294,1.294,0,0,0,1.529-.34,1.224,1.224,0,0,0,.166-.191c.845-1.41,2.071-1.27,3.2-.466.743.529,1.466,1.085,2.2,1.624C28.568,24.3,28.558,25.076,27.877,26.19Zm-7.03-14.06a4.528,4.528,0,0,0-.745.062.761.761,0,1,1-.25-1.5,6.141,6.141,0,0,1,1-.082,5.985,5.985,0,0,1,5.978,5.978,6.115,6.115,0,0,1-.082,1,.762.762,0,0,1-.75.635.722.722,0,0,1-.127-.011.761.761,0,0,1-.624-.877,4.461,4.461,0,0,0-4.395-5.2Zm3.7,4.565a.761.761,0,0,1-1.522,0,2.285,2.285,0,0,0-2.283-2.283.761.761,0,0,1,0-1.522A3.809,3.809,0,0,1,24.543,16.7Zm4.344,1.69a.761.761,0,0,1-1.484-.336,6.718,6.718,0,0,0-8.035-8.035.761.761,0,1,1-.336-1.484,8.235,8.235,0,0,1,9.855,9.855Z" transform="translate(-3.999 -2.999)"/>
</svg>
