<svg xmlns="http://www.w3.org/2000/svg" width="35" height="35" viewBox="0 0 35 35">
  <defs>
    <style>
      .cls-1 {
        fill: #383838;
      }
    </style>
  </defs>
  <path id="icons8-whatsapp" class="cls-1" d="M19.5,2A17.5,17.5,0,0,0,4.254,28.09L2.028,36.034A.761.761,0,0,0,2.761,37a.783.783,0,0,0,.183-.022l8.29-2.054A17.5,17.5,0,1,0,19.5,2Zm8.8,23.675c-.374,1.036-2.17,1.982-3.033,2.109a6.246,6.246,0,0,1-2.83-.176,26.33,26.33,0,0,1-2.561-.935c-4.507-1.922-7.45-6.4-7.675-6.7a8.572,8.572,0,0,1-1.834-4.588,4.949,4.949,0,0,1,1.573-3.7,1.661,1.661,0,0,1,1.2-.555c.3,0,.6,0,.861.016s.647-.1,1.011.762c.374.889,1.273,3.072,1.384,3.295a.81.81,0,0,1,.038.778,2.99,2.99,0,0,1-.449.74c-.225.259-.472.578-.674.778-.225.221-.459.461-.2.905a13.369,13.369,0,0,0,2.5,3.073,12.317,12.317,0,0,0,3.613,2.2c.449.222.711.185.973-.111s1.123-1.3,1.422-1.739.6-.371,1.011-.222,2.621,1.22,3.07,1.443.749.333.861.518A3.657,3.657,0,0,1,28.3,25.675Z" transform="translate(-2 -2)"/>
</svg>
