<svg xmlns="http://www.w3.org/2000/svg" width="284.025" height="31.15" viewBox="0 0 284.025 31.15">
  <defs>
    <style>
      .cls-1 {
        fill: #383838;
      }
    </style>
  </defs>
  <path id="БелыйЛайнер" class="cls-1" d="M1.89,8.655V32H14.7c5.25,0,8.05-3.4,8.05-7.6,0-4.165-2.8-7.595-8.05-7.595H8.96V14.535H21.35V8.655ZM13.825,22.69a1.715,1.715,0,1,1,0,3.43H8.96V22.69ZM42.77,32V26.12H32.13V23.145h10.4v-5.88H32.13v-2.73H42.77V8.655H25.06V32Zm1.96.42c5.425,0,10.045-2.2,11.06-15.75l.14-1.855h5.425V32h7.07V8.655H50.19l-.455,5.95C48.93,24.86,46.725,25.84,44.73,25.84ZM72.205,8.655V32h12.46c5.46,0,8.4-3.64,8.4-8.015,0-4.34-2.94-7.98-8.4-7.98h-5.39V8.655ZM101.57,32V8.655H94.5V32ZM83.755,22.165c1.19,0,2.135.6,2.135,1.82,0,1.26-.945,1.855-2.135,1.855h-4.48V22.165Zm32.83-14.91a8.153,8.153,0,0,0,6.58-3.325L119.98,1.27a4.163,4.163,0,0,1-3.4,1.855,4.005,4.005,0,0,1-3.36-1.855L109.97,3.93A8.32,8.32,0,0,0,116.585,7.255ZM105.35,32h6.79l8.61-13.93V32h7.07V8.655h-7.28l-8.12,13.16V8.655h-7.07Zm33.985.42c5.425,0,10.045-2.2,11.06-15.75l.14-1.855h5.425V32h7.07V8.655H144.8l-.455,5.95c-.805,10.255-3.01,11.235-5.005,11.235ZM190.4,32,181.79,8.655H172.9L164.29,32h7.665l.91-3.01h8.96l.91,3.01Zm-10.395-8.89h-5.32l2.66-8.225ZM202.9,7.255a8.153,8.153,0,0,0,6.58-3.325L206.29,1.27a4.163,4.163,0,0,1-3.4,1.855,4.005,4.005,0,0,1-3.36-1.855L196.28,3.93A8.32,8.32,0,0,0,202.9,7.255ZM191.66,32h6.79l8.61-13.93V32h7.07V8.655h-7.28l-8.12,13.16V8.655h-7.07Zm48.755,0V8.655h-7.07v8.26H224.98V8.655h-7.07V32h7.07V23.075h8.365V32Zm21.49,0V26.12h-10.64V23.145h10.4v-5.88h-10.4v-2.73h10.64V8.655H244.2V32Zm10.22,0V24.51h5.39c5.46,0,8.4-3.5,8.4-7.84,0-4.375-2.94-8.015-8.4-8.015h-12.46V32Zm6.615-15.4a2.014,2.014,0,0,1-2.135,2.03h-4.48V14.535h4.48A2.022,2.022,0,0,1,278.74,16.6Z" transform="translate(-1.89 -1.27)"/>
</svg>
